# MagicaVoxel @ Ephtracy

# group
o 

# material
mtllib terrain-18.mtl
usemtl palette

# normals
vn -1 0 0
vn 1 0 0
vn 0 0 1
vn 0 0 -1
vn 0 -1 0
vn 0 1 0

# texcoords
vt 0.970703 0.5
vt 0.974609 0.5

# verts
v -3.2 -3.2 3.2
v -3.2 -3.2 -3.2
v -3.2 1 3.2
v -3.2 1 3
v -3.2 1.1 3
v -3.2 1.1 2.8
v -3.2 1.2 2.8
v -3.2 1.2 2.6
v -3.2 1.3 3.2
v -3.2 1.3 3
v -3.2 1.3 2.6
v -3.2 1.3 2.4
v -3.2 1.4 3
v -3.2 1.4 2.8
v -3.2 1.4 2.4
v -3.2 1.4 2.2
v -3.2 1.5 2.8
v -3.2 1.5 2.6
v -3.2 1.5 2.2
v -3.2 1.5 2
v -3.2 1.6 2.6
v -3.2 1.6 2.4
v -3.2 1.6 2
v -3.2 1.6 1.8
v -3.2 1.7 2.4
v -3.2 1.7 2.2
v -3.2 1.7 1.8
v -3.2 1.7 1.6
v -3.2 1.8 2.2
v -3.2 1.8 2
v -3.2 1.8 1.6
v -3.2 1.8 1.4
v -3.2 1.9 2
v -3.2 1.9 1.8
v -3.2 1.9 1.4
v -3.2 1.9 1.2
v -3.2 2 1.8
v -3.2 2 1.6
v -3.2 2 1.2
v -3.2 2 1
v -3.2 2.1 1.6
v -3.2 2.1 1.4
v -3.2 2.1 1
v -3.2 2.1 0.8
v -3.2 2.2 1.4
v -3.2 2.2 1.2
v -3.2 2.2 0.8
v -3.2 2.2 0.6
v -3.2 2.3 1.2
v -3.2 2.3 1
v -3.2 2.3 0.6
v -3.2 2.3 0.4
v -3.2 2.4 1
v -3.2 2.4 0.8
v -3.2 2.4 0.4
v -3.2 2.4 0.2
v -3.2 2.5 0.8
v -3.2 2.5 0.6
v -3.2 2.5 0.2
v -3.2 2.5 0
v -3.2 2.6 0.6
v -3.2 2.6 0.4
v -3.2 2.6 0
v -3.2 2.6 -0.2
v -3.2 2.7 0.4
v -3.2 2.7 0.2
v -3.2 2.7 -0.2
v -3.2 2.7 -0.4
v -3.2 2.8 0.2
v -3.2 2.8 0
v -3.2 2.8 -0.4
v -3.2 2.8 -0.6
v -3.2 2.9 0
v -3.2 2.9 -0.2
v -3.2 2.9 -0.6
v -3.2 2.9 -0.8
v -3.2 3 -0.2
v -3.2 3 -0.4
v -3.2 3 -0.8
v -3.2 3 -1
v -3.2 3.1 -0.4
v -3.2 3.1 -0.6
v -3.2 3.1 -1
v -3.2 3.1 -1.2
v -3.2 3.2 -0.6
v -3.2 3.2 -1.2
v -3.2 3.2 -3.2
v 3.2 -3.2 3.2
v 3.2 -3.2 -3.2
v 3.2 1 3.2
v 3.2 1 3
v 3.2 1.1 3
v 3.2 1.1 2.8
v 3.2 1.2 2.8
v 3.2 1.2 2.6
v 3.2 1.3 3.2
v 3.2 1.3 3
v 3.2 1.3 2.6
v 3.2 1.3 2.4
v 3.2 1.4 3
v 3.2 1.4 2.8
v 3.2 1.4 2.4
v 3.2 1.4 2.2
v 3.2 1.5 2.8
v 3.2 1.5 2.6
v 3.2 1.5 2.2
v 3.2 1.5 2
v 3.2 1.6 2.6
v 3.2 1.6 2.4
v 3.2 1.6 2
v 3.2 1.6 1.8
v 3.2 1.7 2.4
v 3.2 1.7 2.2
v 3.2 1.7 1.8
v 3.2 1.7 1.6
v 3.2 1.8 2.2
v 3.2 1.8 2
v 3.2 1.8 1.6
v 3.2 1.8 1.4
v 3.2 1.9 2
v 3.2 1.9 1.8
v 3.2 1.9 1.4
v 3.2 1.9 1.2
v 3.2 2 1.8
v 3.2 2 1.6
v 3.2 2 1.2
v 3.2 2 1
v 3.2 2.1 1.6
v 3.2 2.1 1.4
v 3.2 2.1 1
v 3.2 2.1 0.8
v 3.2 2.2 1.4
v 3.2 2.2 1.2
v 3.2 2.2 0.8
v 3.2 2.2 0.6
v 3.2 2.3 1.2
v 3.2 2.3 1
v 3.2 2.3 0.6
v 3.2 2.3 0.4
v 3.2 2.4 1
v 3.2 2.4 0.8
v 3.2 2.4 0.4
v 3.2 2.4 0.2
v 3.2 2.5 0.8
v 3.2 2.5 0.6
v 3.2 2.5 0.2
v 3.2 2.5 0
v 3.2 2.6 0.6
v 3.2 2.6 0.4
v 3.2 2.6 0
v 3.2 2.6 -0.2
v 3.2 2.7 0.4
v 3.2 2.7 0.2
v 3.2 2.7 -0.2
v 3.2 2.7 -0.4
v 3.2 2.8 0.2
v 3.2 2.8 0
v 3.2 2.8 -0.4
v 3.2 2.8 -0.6
v 3.2 2.9 0
v 3.2 2.9 -0.2
v 3.2 2.9 -0.6
v 3.2 2.9 -0.8
v 3.2 3 -0.2
v 3.2 3 -0.4
v 3.2 3 -0.8
v 3.2 3 -1
v 3.2 3.1 -0.4
v 3.2 3.1 -0.6
v 3.2 3.1 -1
v 3.2 3.1 -1.2
v 3.2 3.2 -0.6
v 3.2 3.2 -1.2
v 3.2 3.2 -3.2
v -3.2 -3.2 3.2
v -3.2 1 3.2
v -3.2 1.3 3.2
v 3.2 -3.2 3.2
v 3.2 1 3.2
v 3.2 1.3 3.2
v -3.2 1.3 3
v -3.2 1.4 3
v 3.2 1.3 3
v 3.2 1.4 3
v -3.2 1.4 2.8
v -3.2 1.5 2.8
v 3.2 1.4 2.8
v 3.2 1.5 2.8
v -3.2 1.5 2.6
v -3.2 1.6 2.6
v 3.2 1.5 2.6
v 3.2 1.6 2.6
v -3.2 1.6 2.4
v -3.2 1.7 2.4
v 3.2 1.6 2.4
v 3.2 1.7 2.4
v -3.2 1.7 2.2
v -3.2 1.8 2.2
v 3.2 1.7 2.2
v 3.2 1.8 2.2
v -3.2 1.8 2
v -3.2 1.9 2
v 3.2 1.8 2
v 3.2 1.9 2
v -3.2 1.9 1.8
v -3.2 2 1.8
v 3.2 1.9 1.8
v 3.2 2 1.8
v -3.2 2 1.6
v -3.2 2.1 1.6
v 3.2 2 1.6
v 3.2 2.1 1.6
v -3.2 2.1 1.4
v -3.2 2.2 1.4
v 3.2 2.1 1.4
v 3.2 2.2 1.4
v -3.2 2.2 1.2
v -3.2 2.3 1.2
v 3.2 2.2 1.2
v 3.2 2.3 1.2
v -3.2 2.3 1
v -3.2 2.4 1
v 3.2 2.3 1
v 3.2 2.4 1
v -3.2 2.4 0.8
v -3.2 2.5 0.8
v 3.2 2.4 0.8
v 3.2 2.5 0.8
v -3.2 2.5 0.6
v -3.2 2.6 0.6
v 3.2 2.5 0.6
v 3.2 2.6 0.6
v -3.2 2.6 0.4
v -3.2 2.7 0.4
v 3.2 2.6 0.4
v 3.2 2.7 0.4
v -3.2 2.7 0.2
v -3.2 2.8 0.2
v 3.2 2.7 0.2
v 3.2 2.8 0.2
v -3.2 2.8 0
v -3.2 2.9 0
v 3.2 2.8 0
v 3.2 2.9 0
v -3.2 2.9 -0.2
v -3.2 3 -0.2
v 3.2 2.9 -0.2
v 3.2 3 -0.2
v -3.2 3 -0.4
v -3.2 3.1 -0.4
v 3.2 3 -0.4
v 3.2 3.1 -0.4
v -3.2 3.1 -0.6
v -3.2 3.2 -0.6
v 3.2 3.1 -0.6
v 3.2 3.2 -0.6
v -3.2 -3.2 -3.2
v -3.2 3.2 -3.2
v 3.2 -3.2 -3.2
v 3.2 3.2 -3.2
v -3.2 -3.2 3.2
v 3.2 -3.2 3.2
v -3.2 -3.2 -3.2
v 3.2 -3.2 -3.2
v -3.2 1.3 3.2
v 3.2 1.3 3.2
v -3.2 1.3 3
v 3.2 1.3 3
v -3.2 1.4 3
v 3.2 1.4 3
v -3.2 1.4 2.8
v 3.2 1.4 2.8
v -3.2 1.5 2.8
v 3.2 1.5 2.8
v -3.2 1.5 2.6
v 3.2 1.5 2.6
v -3.2 1.6 2.6
v 3.2 1.6 2.6
v -3.2 1.6 2.4
v 3.2 1.6 2.4
v -3.2 1.7 2.4
v 3.2 1.7 2.4
v -3.2 1.7 2.2
v 3.2 1.7 2.2
v -3.2 1.8 2.2
v 3.2 1.8 2.2
v -3.2 1.8 2
v 3.2 1.8 2
v -3.2 1.9 2
v 3.2 1.9 2
v -3.2 1.9 1.8
v 3.2 1.9 1.8
v -3.2 2 1.8
v 3.2 2 1.8
v -3.2 2 1.6
v 3.2 2 1.6
v -3.2 2.1 1.6
v 3.2 2.1 1.6
v -3.2 2.1 1.4
v 3.2 2.1 1.4
v -3.2 2.2 1.4
v 3.2 2.2 1.4
v -3.2 2.2 1.2
v 3.2 2.2 1.2
v -3.2 2.3 1.2
v 3.2 2.3 1.2
v -3.2 2.3 1
v 3.2 2.3 1
v -3.2 2.4 1
v 3.2 2.4 1
v -3.2 2.4 0.8
v 3.2 2.4 0.8
v -3.2 2.5 0.8
v 3.2 2.5 0.8
v -3.2 2.5 0.6
v 3.2 2.5 0.6
v -3.2 2.6 0.6
v 3.2 2.6 0.6
v -3.2 2.6 0.4
v 3.2 2.6 0.4
v -3.2 2.7 0.4
v 3.2 2.7 0.4
v -3.2 2.7 0.2
v 3.2 2.7 0.2
v -3.2 2.8 0.2
v 3.2 2.8 0.2
v -3.2 2.8 0
v 3.2 2.8 0
v -3.2 2.9 0
v 3.2 2.9 0
v -3.2 2.9 -0.2
v 3.2 2.9 -0.2
v -3.2 3 -0.2
v 3.2 3 -0.2
v -3.2 3 -0.4
v 3.2 3 -0.4
v -3.2 3.1 -0.4
v 3.2 3.1 -0.4
v -3.2 3.1 -0.6
v 3.2 3.1 -0.6
v -3.2 3.2 -0.6
v 3.2 3.2 -0.6
v -3.2 3.2 -1.2
v 3.2 3.2 -1.2
v -3.2 3.2 -3.2
v 3.2 3.2 -3.2

# faces
f 3/2/1 2/2/1 1/2/1
f 4/2/1 2/2/1 3/2/1
f 5/1/1 4/1/1 3/1/1
f 5/2/1 2/2/1 4/2/1
f 6/2/1 2/2/1 5/2/1
f 7/1/1 6/1/1 5/1/1
f 7/2/1 2/2/1 6/2/1
f 8/2/1 2/2/1 7/2/1
f 9/1/1 5/1/1 3/1/1
f 9/1/1 7/1/1 5/1/1
f 9/1/1 8/1/1 7/1/1
f 10/1/1 8/1/1 9/1/1
f 11/2/1 2/2/1 8/2/1
f 11/1/1 8/1/1 10/1/1
f 12/2/1 2/2/1 11/2/1
f 13/1/1 11/1/1 10/1/1
f 13/1/1 12/1/1 11/1/1
f 14/1/1 12/1/1 13/1/1
f 15/2/1 2/2/1 12/2/1
f 15/1/1 12/1/1 14/1/1
f 16/2/1 2/2/1 15/2/1
f 17/1/1 15/1/1 14/1/1
f 17/1/1 16/1/1 15/1/1
f 18/1/1 16/1/1 17/1/1
f 19/2/1 2/2/1 16/2/1
f 19/1/1 16/1/1 18/1/1
f 20/2/1 2/2/1 19/2/1
f 21/1/1 19/1/1 18/1/1
f 21/1/1 20/1/1 19/1/1
f 22/1/1 20/1/1 21/1/1
f 23/2/1 2/2/1 20/2/1
f 23/1/1 20/1/1 22/1/1
f 24/2/1 2/2/1 23/2/1
f 25/1/1 23/1/1 22/1/1
f 25/1/1 24/1/1 23/1/1
f 26/1/1 24/1/1 25/1/1
f 27/2/1 2/2/1 24/2/1
f 27/1/1 24/1/1 26/1/1
f 28/2/1 2/2/1 27/2/1
f 29/1/1 27/1/1 26/1/1
f 29/1/1 28/1/1 27/1/1
f 30/1/1 28/1/1 29/1/1
f 31/2/1 2/2/1 28/2/1
f 31/1/1 28/1/1 30/1/1
f 32/2/1 2/2/1 31/2/1
f 33/1/1 31/1/1 30/1/1
f 33/1/1 32/1/1 31/1/1
f 34/1/1 32/1/1 33/1/1
f 35/2/1 2/2/1 32/2/1
f 35/1/1 32/1/1 34/1/1
f 36/2/1 2/2/1 35/2/1
f 37/1/1 35/1/1 34/1/1
f 37/1/1 36/1/1 35/1/1
f 38/1/1 36/1/1 37/1/1
f 39/2/1 2/2/1 36/2/1
f 39/1/1 36/1/1 38/1/1
f 40/2/1 2/2/1 39/2/1
f 41/1/1 39/1/1 38/1/1
f 41/1/1 40/1/1 39/1/1
f 42/1/1 40/1/1 41/1/1
f 43/2/1 2/2/1 40/2/1
f 43/1/1 40/1/1 42/1/1
f 44/2/1 2/2/1 43/2/1
f 45/1/1 43/1/1 42/1/1
f 45/1/1 44/1/1 43/1/1
f 46/1/1 44/1/1 45/1/1
f 47/2/1 2/2/1 44/2/1
f 47/1/1 44/1/1 46/1/1
f 48/2/1 2/2/1 47/2/1
f 49/1/1 47/1/1 46/1/1
f 49/1/1 48/1/1 47/1/1
f 50/1/1 48/1/1 49/1/1
f 51/2/1 2/2/1 48/2/1
f 51/1/1 48/1/1 50/1/1
f 52/2/1 2/2/1 51/2/1
f 53/1/1 51/1/1 50/1/1
f 53/1/1 52/1/1 51/1/1
f 54/1/1 52/1/1 53/1/1
f 55/2/1 2/2/1 52/2/1
f 55/1/1 52/1/1 54/1/1
f 56/2/1 2/2/1 55/2/1
f 57/1/1 55/1/1 54/1/1
f 57/1/1 56/1/1 55/1/1
f 58/1/1 56/1/1 57/1/1
f 59/2/1 2/2/1 56/2/1
f 59/1/1 56/1/1 58/1/1
f 60/2/1 2/2/1 59/2/1
f 61/1/1 59/1/1 58/1/1
f 61/1/1 60/1/1 59/1/1
f 62/1/1 60/1/1 61/1/1
f 63/2/1 2/2/1 60/2/1
f 63/1/1 60/1/1 62/1/1
f 64/2/1 2/2/1 63/2/1
f 65/1/1 63/1/1 62/1/1
f 65/1/1 64/1/1 63/1/1
f 66/1/1 64/1/1 65/1/1
f 67/2/1 2/2/1 64/2/1
f 67/1/1 64/1/1 66/1/1
f 68/2/1 2/2/1 67/2/1
f 69/1/1 67/1/1 66/1/1
f 69/1/1 68/1/1 67/1/1
f 70/1/1 68/1/1 69/1/1
f 71/2/1 2/2/1 68/2/1
f 71/1/1 68/1/1 70/1/1
f 72/2/1 2/2/1 71/2/1
f 73/1/1 71/1/1 70/1/1
f 73/1/1 72/1/1 71/1/1
f 74/1/1 72/1/1 73/1/1
f 75/2/1 2/2/1 72/2/1
f 75/1/1 72/1/1 74/1/1
f 76/2/1 2/2/1 75/2/1
f 77/1/1 75/1/1 74/1/1
f 77/1/1 76/1/1 75/1/1
f 78/1/1 76/1/1 77/1/1
f 79/2/1 2/2/1 76/2/1
f 79/1/1 76/1/1 78/1/1
f 80/2/1 2/2/1 79/2/1
f 81/1/1 79/1/1 78/1/1
f 81/1/1 80/1/1 79/1/1
f 82/1/1 80/1/1 81/1/1
f 83/2/1 2/2/1 80/2/1
f 83/1/1 80/1/1 82/1/1
f 84/2/1 2/2/1 83/2/1
f 85/1/1 83/1/1 82/1/1
f 85/1/1 84/1/1 83/1/1
f 86/2/1 2/2/1 84/2/1
f 86/1/1 84/1/1 85/1/1
f 87/2/1 2/2/1 86/2/1
f 88/2/2 89/2/2 90/2/2
f 90/2/2 89/2/2 91/2/2
f 90/1/2 91/1/2 92/1/2
f 91/2/2 89/2/2 92/2/2
f 92/2/2 89/2/2 93/2/2
f 92/1/2 93/1/2 94/1/2
f 93/2/2 89/2/2 94/2/2
f 94/2/2 89/2/2 95/2/2
f 90/1/2 92/1/2 96/1/2
f 92/1/2 94/1/2 96/1/2
f 94/1/2 95/1/2 96/1/2
f 96/1/2 95/1/2 97/1/2
f 95/2/2 89/2/2 98/2/2
f 97/1/2 95/1/2 98/1/2
f 98/2/2 89/2/2 99/2/2
f 97/1/2 98/1/2 100/1/2
f 98/1/2 99/1/2 100/1/2
f 100/1/2 99/1/2 101/1/2
f 99/2/2 89/2/2 102/2/2
f 101/1/2 99/1/2 102/1/2
f 102/2/2 89/2/2 103/2/2
f 101/1/2 102/1/2 104/1/2
f 102/1/2 103/1/2 104/1/2
f 104/1/2 103/1/2 105/1/2
f 103/2/2 89/2/2 106/2/2
f 105/1/2 103/1/2 106/1/2
f 106/2/2 89/2/2 107/2/2
f 105/1/2 106/1/2 108/1/2
f 106/1/2 107/1/2 108/1/2
f 108/1/2 107/1/2 109/1/2
f 107/2/2 89/2/2 110/2/2
f 109/1/2 107/1/2 110/1/2
f 110/2/2 89/2/2 111/2/2
f 109/1/2 110/1/2 112/1/2
f 110/1/2 111/1/2 112/1/2
f 112/1/2 111/1/2 113/1/2
f 111/2/2 89/2/2 114/2/2
f 113/1/2 111/1/2 114/1/2
f 114/2/2 89/2/2 115/2/2
f 113/1/2 114/1/2 116/1/2
f 114/1/2 115/1/2 116/1/2
f 116/1/2 115/1/2 117/1/2
f 115/2/2 89/2/2 118/2/2
f 117/1/2 115/1/2 118/1/2
f 118/2/2 89/2/2 119/2/2
f 117/1/2 118/1/2 120/1/2
f 118/1/2 119/1/2 120/1/2
f 120/1/2 119/1/2 121/1/2
f 119/2/2 89/2/2 122/2/2
f 121/1/2 119/1/2 122/1/2
f 122/2/2 89/2/2 123/2/2
f 121/1/2 122/1/2 124/1/2
f 122/1/2 123/1/2 124/1/2
f 124/1/2 123/1/2 125/1/2
f 123/2/2 89/2/2 126/2/2
f 125/1/2 123/1/2 126/1/2
f 126/2/2 89/2/2 127/2/2
f 125/1/2 126/1/2 128/1/2
f 126/1/2 127/1/2 128/1/2
f 128/1/2 127/1/2 129/1/2
f 127/2/2 89/2/2 130/2/2
f 129/1/2 127/1/2 130/1/2
f 130/2/2 89/2/2 131/2/2
f 129/1/2 130/1/2 132/1/2
f 130/1/2 131/1/2 132/1/2
f 132/1/2 131/1/2 133/1/2
f 131/2/2 89/2/2 134/2/2
f 133/1/2 131/1/2 134/1/2
f 134/2/2 89/2/2 135/2/2
f 133/1/2 134/1/2 136/1/2
f 134/1/2 135/1/2 136/1/2
f 136/1/2 135/1/2 137/1/2
f 135/2/2 89/2/2 138/2/2
f 137/1/2 135/1/2 138/1/2
f 138/2/2 89/2/2 139/2/2
f 137/1/2 138/1/2 140/1/2
f 138/1/2 139/1/2 140/1/2
f 140/1/2 139/1/2 141/1/2
f 139/2/2 89/2/2 142/2/2
f 141/1/2 139/1/2 142/1/2
f 142/2/2 89/2/2 143/2/2
f 141/1/2 142/1/2 144/1/2
f 142/1/2 143/1/2 144/1/2
f 144/1/2 143/1/2 145/1/2
f 143/2/2 89/2/2 146/2/2
f 145/1/2 143/1/2 146/1/2
f 146/2/2 89/2/2 147/2/2
f 145/1/2 146/1/2 148/1/2
f 146/1/2 147/1/2 148/1/2
f 148/1/2 147/1/2 149/1/2
f 147/2/2 89/2/2 150/2/2
f 149/1/2 147/1/2 150/1/2
f 150/2/2 89/2/2 151/2/2
f 149/1/2 150/1/2 152/1/2
f 150/1/2 151/1/2 152/1/2
f 152/1/2 151/1/2 153/1/2
f 151/2/2 89/2/2 154/2/2
f 153/1/2 151/1/2 154/1/2
f 154/2/2 89/2/2 155/2/2
f 153/1/2 154/1/2 156/1/2
f 154/1/2 155/1/2 156/1/2
f 156/1/2 155/1/2 157/1/2
f 155/2/2 89/2/2 158/2/2
f 157/1/2 155/1/2 158/1/2
f 158/2/2 89/2/2 159/2/2
f 157/1/2 158/1/2 160/1/2
f 158/1/2 159/1/2 160/1/2
f 160/1/2 159/1/2 161/1/2
f 159/2/2 89/2/2 162/2/2
f 161/1/2 159/1/2 162/1/2
f 162/2/2 89/2/2 163/2/2
f 161/1/2 162/1/2 164/1/2
f 162/1/2 163/1/2 164/1/2
f 164/1/2 163/1/2 165/1/2
f 163/2/2 89/2/2 166/2/2
f 165/1/2 163/1/2 166/1/2
f 166/2/2 89/2/2 167/2/2
f 165/1/2 166/1/2 168/1/2
f 166/1/2 167/1/2 168/1/2
f 168/1/2 167/1/2 169/1/2
f 167/2/2 89/2/2 170/2/2
f 169/1/2 167/1/2 170/1/2
f 170/2/2 89/2/2 171/2/2
f 169/1/2 170/1/2 172/1/2
f 170/1/2 171/1/2 172/1/2
f 171/2/2 89/2/2 173/2/2
f 172/1/2 171/1/2 173/1/2
f 173/2/2 89/2/2 174/2/2
f 178/2/3 176/2/3 175/2/3
f 179/1/3 177/1/3 176/1/3
f 179/2/3 176/2/3 178/2/3
f 180/1/3 177/1/3 179/1/3
f 183/1/3 182/1/3 181/1/3
f 184/1/3 182/1/3 183/1/3
f 187/1/3 186/1/3 185/1/3
f 188/1/3 186/1/3 187/1/3
f 191/1/3 190/1/3 189/1/3
f 192/1/3 190/1/3 191/1/3
f 195/1/3 194/1/3 193/1/3
f 196/1/3 194/1/3 195/1/3
f 199/1/3 198/1/3 197/1/3
f 200/1/3 198/1/3 199/1/3
f 203/1/3 202/1/3 201/1/3
f 204/1/3 202/1/3 203/1/3
f 207/1/3 206/1/3 205/1/3
f 208/1/3 206/1/3 207/1/3
f 211/1/3 210/1/3 209/1/3
f 212/1/3 210/1/3 211/1/3
f 215/1/3 214/1/3 213/1/3
f 216/1/3 214/1/3 215/1/3
f 219/1/3 218/1/3 217/1/3
f 220/1/3 218/1/3 219/1/3
f 223/1/3 222/1/3 221/1/3
f 224/1/3 222/1/3 223/1/3
f 227/1/3 226/1/3 225/1/3
f 228/1/3 226/1/3 227/1/3
f 231/1/3 230/1/3 229/1/3
f 232/1/3 230/1/3 231/1/3
f 235/1/3 234/1/3 233/1/3
f 236/1/3 234/1/3 235/1/3
f 239/1/3 238/1/3 237/1/3
f 240/1/3 238/1/3 239/1/3
f 243/1/3 242/1/3 241/1/3
f 244/1/3 242/1/3 243/1/3
f 247/1/3 246/1/3 245/1/3
f 248/1/3 246/1/3 247/1/3
f 251/1/3 250/1/3 249/1/3
f 252/1/3 250/1/3 251/1/3
f 255/1/3 254/1/3 253/1/3
f 256/1/3 254/1/3 255/1/3
f 257/2/4 258/2/4 259/2/4
f 259/2/4 258/2/4 260/2/4
f 263/2/5 262/2/5 261/2/5
f 264/2/5 262/2/5 263/2/5
f 265/1/6 266/1/6 267/1/6
f 267/1/6 266/1/6 268/1/6
f 269/1/6 270/1/6 271/1/6
f 271/1/6 270/1/6 272/1/6
f 273/1/6 274/1/6 275/1/6
f 275/1/6 274/1/6 276/1/6
f 277/1/6 278/1/6 279/1/6
f 279/1/6 278/1/6 280/1/6
f 281/1/6 282/1/6 283/1/6
f 283/1/6 282/1/6 284/1/6
f 285/1/6 286/1/6 287/1/6
f 287/1/6 286/1/6 288/1/6
f 289/1/6 290/1/6 291/1/6
f 291/1/6 290/1/6 292/1/6
f 293/1/6 294/1/6 295/1/6
f 295/1/6 294/1/6 296/1/6
f 297/1/6 298/1/6 299/1/6
f 299/1/6 298/1/6 300/1/6
f 301/1/6 302/1/6 303/1/6
f 303/1/6 302/1/6 304/1/6
f 305/1/6 306/1/6 307/1/6
f 307/1/6 306/1/6 308/1/6
f 309/1/6 310/1/6 311/1/6
f 311/1/6 310/1/6 312/1/6
f 313/1/6 314/1/6 315/1/6
f 315/1/6 314/1/6 316/1/6
f 317/1/6 318/1/6 319/1/6
f 319/1/6 318/1/6 320/1/6
f 321/1/6 322/1/6 323/1/6
f 323/1/6 322/1/6 324/1/6
f 325/1/6 326/1/6 327/1/6
f 327/1/6 326/1/6 328/1/6
f 329/1/6 330/1/6 331/1/6
f 331/1/6 330/1/6 332/1/6
f 333/1/6 334/1/6 335/1/6
f 335/1/6 334/1/6 336/1/6
f 337/1/6 338/1/6 339/1/6
f 339/1/6 338/1/6 340/1/6
f 341/1/6 342/1/6 343/1/6
f 343/1/6 342/1/6 344/1/6
f 343/2/6 344/2/6 345/2/6
f 345/2/6 344/2/6 346/2/6
