# MagicaVoxel @ Ephtracy

# group
o 

# material
mtllib terrain-29.mtl
usemtl palette

# normals
vn -1 0 0
vn 1 0 0
vn 0 0 1
vn 0 0 -1
vn 0 -1 0
vn 0 1 0

# texcoords
vt 0.970703 0.5
vt 0.974609 0.5
vt 0.978516 0.5

# verts
v -3.2 -3.2 3.2
v -3.2 -3.2 -3.2
v -3.2 -3.1 0.6
v -3.2 -3.1 0
v -3.2 -3.1 -2.5
v -3.2 -3.1 -3.1
v -3.2 -3 2.9
v -3.2 -3 2.3
v -3.2 -3 0
v -3.2 -3 -0.4
v -3.2 -3 -1.6
v -3.2 -3 -2
v -3.2 -2.9 2.2
v -3.2 -2.9 1.8
v -3.2 -2.8 -2.2
v -3.2 -2.8 -2.5
v -3.2 -2.6 -0.9
v -3.2 -2.6 -1.1
v -3.2 -2.6 -1.6
v -3.2 -2.6 -2
v -3.2 -2.5 2.2
v -3.2 -2.5 1.8
v -3.2 -2.5 0.6
v -3.2 -2.5 0.2
v -3.2 -2.5 -2.6
v -3.2 -2.5 -3.1
v -3.2 -2.4 2.9
v -3.2 -2.4 2.3
v -3.2 -2.4 0.2
v -3.2 -2.4 -0.4
v -3.2 -2.4 -0.9
v -3.2 -2.4 -1.1
v -3.2 -2.4 -2.2
v -3.2 -2.4 -2.6
v -3.2 -2.2 3.2
v -3.2 -2.2 -3.2
v -3.2 -1.9 3.2
v -3.2 -1.9 -3.2
v 3.2 -3.2 3.2
v 3.2 -3.2 -3.2
v 3.2 -3.1 3.1
v 3.2 -3.1 2.5
v 3.2 -3.1 -2.1
v 3.2 -3.1 -2.7
v 3.2 -3 2
v 3.2 -3 1.8
v 3.2 -3 -2.7
v 3.2 -3 -3.1
v 3.2 -2.8 2.5
v 3.2 -2.8 2.1
v 3.2 -2.8 2
v 3.2 -2.8 1.8
v 3.2 -2.8 0.9
v 3.2 -2.8 0.5
v 3.2 -2.7 -1.6
v 3.2 -2.7 -1.8
v 3.2 -2.5 3.1
v 3.2 -2.5 2.5
v 3.2 -2.5 -1.6
v 3.2 -2.5 -1.8
v 3.2 -2.5 -2.1
v 3.2 -2.5 -2.5
v 3.2 -2.4 2.5
v 3.2 -2.4 2.1
v 3.2 -2.4 0.9
v 3.2 -2.4 0.5
v 3.2 -2.4 -2.5
v 3.2 -2.4 -3.1
v 3.2 -2.2 3.2
v 3.2 -2.2 -3.2
v 3.2 -1.9 3.2
v 3.2 -1.9 -3.2
v -3.2 -3.2 3.2
v -3.2 -2.2 3.2
v -3.2 -1.9 3.2
v -3 -3 3.2
v -3 -2.4 3.2
v -2.4 -3 3.2
v -2.4 -2.9 3.2
v -2.4 -2.5 3.2
v -2.4 -2.4 3.2
v -2.1 -2.9 3.2
v -2.1 -2.5 3.2
v -1.6 -3 3.2
v -1.6 -2.8 3.2
v -1.4 -3 3.2
v -1.4 -2.8 3.2
v -1.1 -2.8 3.2
v -1.1 -2.4 3.2
v -0.7 -2.8 3.2
v -0.7 -2.4 3.2
v -0.5 -3.1 3.2
v -0.5 -2.5 3.2
v 0.1 -3.1 3.2
v 0.1 -3 3.2
v 0.1 -2.5 3.2
v 0.1 -2.4 3.2
v 0.7 -3 3.2
v 0.7 -2.4 3.2
v 2.2 -2.6 3.2
v 2.2 -2.4 3.2
v 2.4 -2.6 3.2
v 2.4 -2.4 3.2
v 2.6 -2.9 3.2
v 2.6 -2.5 3.2
v 3 -2.9 3.2
v 3 -2.5 3.2
v 3.2 -3.2 3.2
v 3.2 -2.2 3.2
v 3.2 -1.9 3.2
v -3.2 -3.2 -3.2
v -3.2 -2.2 -3.2
v -3.2 -1.9 -3.2
v -3.1 -2.8 -3.2
v -3.1 -2.4 -3.2
v -2.7 -2.8 -3.2
v -2.7 -2.4 -3.2
v -2.5 -2.9 -3.2
v -2.5 -2.7 -3.2
v -2.3 -2.9 -3.2
v -2.3 -2.7 -3.2
v 0.9 -2.7 -3.2
v 0.9 -2.5 -3.2
v 1.1 -2.7 -3.2
v 1.1 -2.5 -3.2
v 1.6 -3 -3.2
v 1.6 -2.6 -3.2
v 1.9 -3.1 -3.2
v 1.9 -3 -3.2
v 2 -2.7 -3.2
v 2 -2.6 -3.2
v 2.3 -3.1 -3.2
v 2.3 -2.7 -3.2
v 3.2 -3.2 -3.2
v 3.2 -2.2 -3.2
v 3.2 -1.9 -3.2
v -3.2 -3.2 3.2
v 3.2 -3.2 3.2
v -3.2 -3.2 -3.2
v 3.2 -3.2 -3.2
v -3.2 -1.9 3.2
v 3.2 -1.9 3.2
v -3.2 -1.9 -3.2
v 3.2 -1.9 -3.2

# faces
f 3/2/1 2/2/1 1/2/1
f 4/2/1 2/2/1 3/2/1
f 5/2/1 2/2/1 4/2/1
f 6/2/1 2/2/1 5/2/1
f 7/2/1 3/2/1 1/2/1
f 8/2/1 3/2/1 7/2/1
f 9/3/1 4/3/1 3/3/1
f 9/2/1 5/2/1 4/2/1
f 10/2/1 5/2/1 9/2/1
f 11/2/1 5/2/1 10/2/1
f 12/2/1 5/2/1 11/2/1
f 13/2/1 3/2/1 8/2/1
f 14/2/1 3/2/1 13/2/1
f 15/2/1 5/2/1 12/2/1
f 16/3/1 6/3/1 5/3/1
f 16/2/1 5/2/1 15/2/1
f 17/2/1 11/2/1 10/2/1
f 18/2/1 11/2/1 17/2/1
f 19/3/1 12/3/1 11/3/1
f 19/2/1 11/2/1 18/2/1
f 20/2/1 15/2/1 12/2/1
f 20/3/1 12/3/1 19/3/1
f 21/2/1 13/2/1 8/2/1
f 21/3/1 14/3/1 13/3/1
f 22/2/1 3/2/1 14/2/1
f 22/3/1 14/3/1 21/3/1
f 23/3/1 9/3/1 3/3/1
f 23/2/1 3/2/1 22/2/1
f 23/3/1 10/3/1 9/3/1
f 24/3/1 10/3/1 23/3/1
f 25/3/1 6/3/1 16/3/1
f 25/3/1 16/3/1 15/3/1
f 26/2/1 2/2/1 6/2/1
f 26/3/1 6/3/1 25/3/1
f 27/3/1 8/3/1 7/3/1
f 27/2/1 7/2/1 1/2/1
f 28/2/1 21/2/1 8/2/1
f 28/3/1 8/3/1 27/3/1
f 28/2/1 22/2/1 21/2/1
f 28/2/1 23/2/1 22/2/1
f 28/2/1 24/2/1 23/2/1
f 29/3/1 10/3/1 24/3/1
f 29/2/1 24/2/1 28/2/1
f 30/2/1 17/2/1 10/2/1
f 30/3/1 10/3/1 29/3/1
f 31/3/1 18/3/1 17/3/1
f 31/2/1 17/2/1 30/2/1
f 32/2/1 19/2/1 18/2/1
f 32/3/1 18/3/1 31/3/1
f 32/2/1 20/2/1 19/2/1
f 33/3/1 25/3/1 15/3/1
f 33/2/1 20/2/1 32/2/1
f 33/2/1 15/2/1 20/2/1
f 34/2/1 26/2/1 25/2/1
f 34/3/1 25/3/1 33/3/1
f 35/2/1 32/2/1 31/2/1
f 35/2/1 27/2/1 1/2/1
f 35/2/1 34/2/1 33/2/1
f 35/2/1 28/2/1 27/2/1
f 35/2/1 29/2/1 28/2/1
f 35/2/1 30/2/1 29/2/1
f 35/2/1 33/2/1 32/2/1
f 35/2/1 31/2/1 30/2/1
f 36/2/1 26/2/1 34/2/1
f 36/2/1 34/2/1 35/2/1
f 36/2/1 2/2/1 26/2/1
f 37/1/1 36/1/1 35/1/1
f 38/1/1 36/1/1 37/1/1
f 39/2/2 40/2/2 41/2/2
f 41/2/2 40/2/2 42/2/2
f 42/2/2 40/2/2 43/2/2
f 43/2/2 40/2/2 44/2/2
f 42/2/2 43/2/2 45/2/2
f 45/2/2 43/2/2 46/2/2
f 44/2/2 40/2/2 47/2/2
f 43/3/2 44/3/2 47/3/2
f 47/2/2 40/2/2 48/2/2
f 41/3/2 42/3/2 49/3/2
f 42/2/2 45/2/2 49/2/2
f 49/2/2 45/2/2 50/2/2
f 45/3/2 46/3/2 51/3/2
f 50/2/2 45/2/2 51/2/2
f 46/2/2 43/2/2 52/2/2
f 51/3/2 46/3/2 52/3/2
f 52/2/2 43/2/2 53/2/2
f 53/2/2 43/2/2 54/2/2
f 54/2/2 43/2/2 55/2/2
f 55/2/2 43/2/2 56/2/2
f 39/2/2 41/2/2 57/2/2
f 49/3/2 50/3/2 57/3/2
f 41/3/2 49/3/2 57/3/2
f 57/3/2 50/3/2 58/3/2
f 55/3/2 56/3/2 59/3/2
f 54/2/2 55/2/2 59/2/2
f 56/2/2 43/2/2 60/2/2
f 59/3/2 56/3/2 60/3/2
f 47/3/2 48/3/2 61/3/2
f 60/2/2 43/2/2 61/2/2
f 43/3/2 47/3/2 61/3/2
f 61/3/2 48/3/2 62/3/2
f 58/3/2 50/3/2 63/3/2
f 57/2/2 58/2/2 63/2/2
f 50/2/2 51/2/2 64/2/2
f 63/3/2 50/3/2 64/3/2
f 51/2/2 52/2/2 64/2/2
f 52/2/2 53/2/2 64/2/2
f 53/3/2 54/3/2 65/3/2
f 64/2/2 53/2/2 65/2/2
f 54/2/2 59/2/2 66/2/2
f 65/3/2 54/3/2 66/3/2
f 59/2/2 60/2/2 66/2/2
f 61/2/2 62/2/2 66/2/2
f 60/2/2 61/2/2 66/2/2
f 62/3/2 48/3/2 67/3/2
f 66/2/2 62/2/2 67/2/2
f 48/2/2 40/2/2 68/2/2
f 67/3/2 48/3/2 68/3/2
f 64/2/2 65/2/2 69/2/2
f 66/2/2 67/2/2 69/2/2
f 67/2/2 68/2/2 69/2/2
f 39/2/2 57/2/2 69/2/2
f 63/2/2 64/2/2 69/2/2
f 65/2/2 66/2/2 69/2/2
f 57/2/2 63/2/2 69/2/2
f 68/2/2 40/2/2 70/2/2
f 69/2/2 68/2/2 70/2/2
f 69/1/2 70/1/2 71/1/2
f 71/1/2 70/1/2 72/1/2
f 76/2/3 74/2/3 73/2/3
f 77/2/3 74/2/3 76/2/3
f 78/2/3 76/2/3 73/2/3
f 78/3/3 77/3/3 76/3/3
f 79/3/3 77/3/3 78/3/3
f 80/3/3 77/3/3 79/3/3
f 81/2/3 74/2/3 77/2/3
f 81/3/3 77/3/3 80/3/3
f 82/3/3 80/3/3 79/3/3
f 82/2/3 79/2/3 78/2/3
f 83/2/3 81/2/3 80/2/3
f 83/3/3 80/3/3 82/3/3
f 84/2/3 78/2/3 73/2/3
f 84/2/3 82/2/3 78/2/3
f 84/2/3 83/2/3 82/2/3
f 85/2/3 83/2/3 84/2/3
f 86/2/3 84/2/3 73/2/3
f 86/3/3 85/3/3 84/3/3
f 87/2/3 83/2/3 85/2/3
f 87/3/3 85/3/3 86/3/3
f 88/2/3 87/2/3 86/2/3
f 88/2/3 83/2/3 87/2/3
f 89/2/3 74/2/3 81/2/3
f 89/2/3 83/2/3 88/2/3
f 89/2/3 81/2/3 83/2/3
f 90/2/3 88/2/3 86/2/3
f 90/3/3 89/3/3 88/3/3
f 91/2/3 74/2/3 89/2/3
f 91/3/3 89/3/3 90/3/3
f 92/2/3 90/2/3 86/2/3
f 92/2/3 86/2/3 73/2/3
f 92/2/3 91/2/3 90/2/3
f 93/2/3 91/2/3 92/2/3
f 94/2/3 92/2/3 73/2/3
f 94/3/3 93/3/3 92/3/3
f 95/3/3 93/3/3 94/3/3
f 96/2/3 91/2/3 93/2/3
f 96/3/3 93/3/3 95/3/3
f 97/2/3 74/2/3 91/2/3
f 97/2/3 91/2/3 96/2/3
f 98/3/3 96/3/3 95/3/3
f 98/2/3 95/2/3 94/2/3
f 98/3/3 97/3/3 96/3/3
f 99/2/3 74/2/3 97/2/3
f 99/3/3 97/3/3 98/3/3
f 100/2/3 99/2/3 98/2/3
f 101/2/3 74/2/3 99/2/3
f 101/2/3 99/2/3 100/2/3
f 102/2/3 100/2/3 98/2/3
f 102/3/3 101/3/3 100/3/3
f 103/2/3 74/2/3 101/2/3
f 103/3/3 101/3/3 102/3/3
f 104/2/3 102/2/3 98/2/3
f 104/2/3 103/2/3 102/2/3
f 105/2/3 103/2/3 104/2/3
f 106/2/3 104/2/3 98/2/3
f 106/3/3 105/3/3 104/3/3
f 107/2/3 103/2/3 105/2/3
f 107/3/3 105/3/3 106/3/3
f 108/2/3 98/2/3 94/2/3
f 108/2/3 94/2/3 73/2/3
f 108/2/3 107/2/3 106/2/3
f 108/2/3 106/2/3 98/2/3
f 109/1/3 75/1/3 74/1/3
f 109/2/3 107/2/3 108/2/3
f 109/2/3 103/2/3 107/2/3
f 109/2/3 74/2/3 103/2/3
f 110/1/3 75/1/3 109/1/3
f 111/2/4 112/2/4 114/2/4
f 114/2/4 112/2/4 115/2/4
f 111/2/4 114/2/4 116/2/4
f 114/3/4 115/3/4 116/3/4
f 115/2/4 112/2/4 117/2/4
f 116/3/4 115/3/4 117/3/4
f 111/2/4 116/2/4 118/2/4
f 116/2/4 117/2/4 118/2/4
f 118/2/4 117/2/4 119/2/4
f 111/2/4 118/2/4 120/2/4
f 118/3/4 119/3/4 120/3/4
f 119/2/4 117/2/4 121/2/4
f 120/3/4 119/3/4 121/3/4
f 120/2/4 121/2/4 122/2/4
f 121/2/4 117/2/4 122/2/4
f 122/2/4 117/2/4 123/2/4
f 120/2/4 122/2/4 124/2/4
f 122/3/4 123/3/4 124/3/4
f 123/2/4 117/2/4 125/2/4
f 124/3/4 123/3/4 125/3/4
f 111/2/4 120/2/4 126/2/4
f 120/2/4 124/2/4 126/2/4
f 124/2/4 125/2/4 126/2/4
f 126/2/4 125/2/4 127/2/4
f 111/2/4 126/2/4 128/2/4
f 126/3/4 127/3/4 129/3/4
f 128/2/4 126/2/4 129/2/4
f 128/3/4 129/3/4 130/3/4
f 129/3/4 127/3/4 130/3/4
f 127/2/4 125/2/4 131/2/4
f 130/3/4 127/3/4 131/3/4
f 128/3/4 130/3/4 132/3/4
f 111/2/4 128/2/4 132/2/4
f 130/2/4 131/2/4 133/2/4
f 132/3/4 130/3/4 133/3/4
f 111/2/4 132/2/4 134/2/4
f 132/2/4 133/2/4 134/2/4
f 112/1/4 113/1/4 135/1/4
f 134/2/4 133/2/4 135/2/4
f 117/2/4 112/2/4 135/2/4
f 133/2/4 131/2/4 135/2/4
f 131/2/4 125/2/4 135/2/4
f 125/2/4 117/2/4 135/2/4
f 135/1/4 113/1/4 136/1/4
f 139/2/5 138/2/5 137/2/5
f 140/2/5 138/2/5 139/2/5
f 141/1/6 142/1/6 143/1/6
f 143/1/6 142/1/6 144/1/6
