# MagicaVoxel @ Ephtracy

# group
o 

# material
mtllib terrain-14.mtl
usemtl palette

# normals
vn -1 0 0
vn 1 0 0
vn 0 0 1
vn 0 0 -1
vn 0 -1 0
vn 0 1 0

# texcoords
vt 0.970703 0.5
vt 0.974609 0.5

# verts
v -3.2 -3.2 3.2
v -3.2 -3.2 -3.2
v -3.2 1 3.2
v -3.2 1 -3.2
v -3.2 1.3 3.2
v -3.2 1.3 -3.2
v -3 1.3 3
v -3 1.3 -3.2
v -3 1.4 3
v -3 1.4 -3.2
v -2.8 1.4 2.8
v -2.8 1.4 -3.2
v -2.8 1.5 2.8
v -2.8 1.5 -3.2
v -2.6 1.5 2.6
v -2.6 1.5 -3.2
v -2.6 1.6 2.6
v -2.6 1.6 -3.2
v -2.4 1.6 2.4
v -2.4 1.6 -3.2
v -2.4 1.7 2.4
v -2.4 1.7 -3.2
v -2.2 1.7 2.2
v -2.2 1.7 -3.2
v -2.2 1.8 2.2
v -2.2 1.8 -3.2
v -2 1.8 2
v -2 1.8 -3.2
v -2 1.9 2
v -2 1.9 -3.2
v -1.8 1.9 1.8
v -1.8 1.9 -3.2
v -1.8 2 1.8
v -1.8 2 -3.2
v -1.6 2 1.6
v -1.6 2 -3.2
v -1.6 2.1 1.6
v -1.6 2.1 -3.2
v -1.4 2.1 1.4
v -1.4 2.1 -3.2
v -1.4 2.2 1.4
v -1.4 2.2 -3.2
v -1.2 2.2 1.2
v -1.2 2.2 -3.2
v -1.2 2.3 1.2
v -1.2 2.3 -3.2
v -1 2.3 1
v -1 2.3 -3.2
v -1 2.4 1
v -1 2.4 -3.2
v -0.8 2.4 0.8
v -0.8 2.4 -3.2
v -0.8 2.5 0.8
v -0.8 2.5 -3.2
v -0.6 2.5 0.6
v -0.6 2.5 -3.2
v -0.6 2.6 0.6
v -0.6 2.6 -3.2
v -0.4 2.6 0.4
v -0.4 2.6 -3.2
v -0.4 2.7 0.4
v -0.4 2.7 -3.2
v -0.2 2.7 0.2
v -0.2 2.7 -3.2
v -0.2 2.8 0.2
v -0.2 2.8 -3.2
v 0 2.8 0
v 0 2.8 -3.2
v 0 2.9 0
v 0 2.9 -3.2
v 0.2 2.9 -0.2
v 0.2 2.9 -3.2
v 0.2 3 -0.2
v 0.2 3 -3.2
v 0.4 3 -0.4
v 0.4 3 -3.2
v 0.4 3.1 -0.4
v 0.4 3.1 -3.2
v 0.6 3.1 -0.6
v 0.6 3.1 -3.2
v 0.6 3.2 -0.6
v 0.6 3.2 -3.2
v 3.2 -3.2 3.2
v 3.2 -3.2 -3.2
v 3.2 1 3.2
v 3.2 1 3
v 3.2 1.1 3
v 3.2 1.1 2.8
v 3.2 1.2 2.8
v 3.2 1.2 2.6
v 3.2 1.3 3.2
v 3.2 1.3 3
v 3.2 1.3 2.6
v 3.2 1.3 2.4
v 3.2 1.4 3
v 3.2 1.4 2.8
v 3.2 1.4 2.4
v 3.2 1.4 2.2
v 3.2 1.5 2.8
v 3.2 1.5 2.6
v 3.2 1.5 2.2
v 3.2 1.5 2
v 3.2 1.6 2.6
v 3.2 1.6 2.4
v 3.2 1.6 2
v 3.2 1.6 1.8
v 3.2 1.7 2.4
v 3.2 1.7 2.2
v 3.2 1.7 1.8
v 3.2 1.7 1.6
v 3.2 1.8 2.2
v 3.2 1.8 2
v 3.2 1.8 1.6
v 3.2 1.8 1.4
v 3.2 1.9 2
v 3.2 1.9 1.8
v 3.2 1.9 1.4
v 3.2 1.9 1.2
v 3.2 2 1.8
v 3.2 2 1.6
v 3.2 2 1.2
v 3.2 2 1
v 3.2 2.1 1.6
v 3.2 2.1 1.4
v 3.2 2.1 1
v 3.2 2.1 0.8
v 3.2 2.2 1.4
v 3.2 2.2 1.2
v 3.2 2.2 0.8
v 3.2 2.2 0.6
v 3.2 2.3 1.2
v 3.2 2.3 1
v 3.2 2.3 0.6
v 3.2 2.3 0.4
v 3.2 2.4 1
v 3.2 2.4 0.8
v 3.2 2.4 0.4
v 3.2 2.4 0.2
v 3.2 2.5 0.8
v 3.2 2.5 0.6
v 3.2 2.5 0.2
v 3.2 2.5 0
v 3.2 2.6 0.6
v 3.2 2.6 0.4
v 3.2 2.6 0
v 3.2 2.6 -0.2
v 3.2 2.7 0.4
v 3.2 2.7 0.2
v 3.2 2.7 -0.2
v 3.2 2.7 -0.4
v 3.2 2.8 0.2
v 3.2 2.8 0
v 3.2 2.8 -0.4
v 3.2 2.8 -0.6
v 3.2 2.9 0
v 3.2 2.9 -0.2
v 3.2 2.9 -0.6
v 3.2 2.9 -0.8
v 3.2 3 -0.2
v 3.2 3 -0.4
v 3.2 3 -0.8
v 3.2 3 -1
v 3.2 3.1 -0.4
v 3.2 3.1 -0.6
v 3.2 3.1 -1
v 3.2 3.1 -1.2
v 3.2 3.2 -0.6
v 3.2 3.2 -1.2
v 3.2 3.2 -3.2
v -3.2 -3.2 3.2
v -3.2 1 3.2
v -3.2 1.3 3.2
v -3 1 3.2
v -3 1.1 3.2
v -2.8 1.1 3.2
v -2.8 1.2 3.2
v 3.1 1 3.2
v 3.1 1.2 3.2
v 3.2 -3.2 3.2
v 3.2 1 3.2
v 3.2 1.3 3.2
v -3 1.3 3
v -3 1.4 3
v 3.2 1.3 3
v 3.2 1.4 3
v -2.8 1.4 2.8
v -2.8 1.5 2.8
v 3.2 1.4 2.8
v 3.2 1.5 2.8
v -2.6 1.5 2.6
v -2.6 1.6 2.6
v 3.2 1.5 2.6
v 3.2 1.6 2.6
v -2.4 1.6 2.4
v -2.4 1.7 2.4
v 3.2 1.6 2.4
v 3.2 1.7 2.4
v -2.2 1.7 2.2
v -2.2 1.8 2.2
v 3.2 1.7 2.2
v 3.2 1.8 2.2
v -2 1.8 2
v -2 1.9 2
v 3.2 1.8 2
v 3.2 1.9 2
v -1.8 1.9 1.8
v -1.8 2 1.8
v 3.2 1.9 1.8
v 3.2 2 1.8
v -1.6 2 1.6
v -1.6 2.1 1.6
v 3.2 2 1.6
v 3.2 2.1 1.6
v -1.4 2.1 1.4
v -1.4 2.2 1.4
v 3.2 2.1 1.4
v 3.2 2.2 1.4
v -1.2 2.2 1.2
v -1.2 2.3 1.2
v 3.2 2.2 1.2
v 3.2 2.3 1.2
v -1 2.3 1
v -1 2.4 1
v 3.2 2.3 1
v 3.2 2.4 1
v -0.8 2.4 0.8
v -0.8 2.5 0.8
v 3.2 2.4 0.8
v 3.2 2.5 0.8
v -0.6 2.5 0.6
v -0.6 2.6 0.6
v 3.2 2.5 0.6
v 3.2 2.6 0.6
v -0.4 2.6 0.4
v -0.4 2.7 0.4
v 3.2 2.6 0.4
v 3.2 2.7 0.4
v -0.2 2.7 0.2
v -0.2 2.8 0.2
v 3.2 2.7 0.2
v 3.2 2.8 0.2
v 0 2.8 0
v 0 2.9 0
v 3.2 2.8 0
v 3.2 2.9 0
v 0.2 2.9 -0.2
v 0.2 3 -0.2
v 3.2 2.9 -0.2
v 3.2 3 -0.2
v 0.4 3 -0.4
v 0.4 3.1 -0.4
v 3.2 3 -0.4
v 3.2 3.1 -0.4
v 0.6 3.1 -0.6
v 0.6 3.2 -0.6
v 3.2 3.1 -0.6
v 3.2 3.2 -0.6
v -3.2 -3.2 -3.2
v -3.2 1 -3.2
v -3.2 1.3 -3.2
v -3 1 -3.2
v -3 1.1 -3.2
v -3 1.3 -3.2
v -3 1.4 -3.2
v -2.8 1.1 -3.2
v -2.8 1.2 -3.2
v -2.8 1.4 -3.2
v -2.8 1.5 -3.2
v -2.6 1.2 -3.2
v -2.6 1.3 -3.2
v -2.6 1.5 -3.2
v -2.6 1.6 -3.2
v -2.4 1.3 -3.2
v -2.4 1.4 -3.2
v -2.4 1.6 -3.2
v -2.4 1.7 -3.2
v -2.2 1.4 -3.2
v -2.2 1.5 -3.2
v -2.2 1.7 -3.2
v -2.2 1.8 -3.2
v -2 1.5 -3.2
v -2 1.6 -3.2
v -2 1.8 -3.2
v -2 1.9 -3.2
v -1.8 1.6 -3.2
v -1.8 1.7 -3.2
v -1.8 1.9 -3.2
v -1.8 2 -3.2
v -1.6 1.7 -3.2
v -1.6 1.8 -3.2
v -1.6 2 -3.2
v -1.6 2.1 -3.2
v -1.4 1.8 -3.2
v -1.4 1.9 -3.2
v -1.4 2.1 -3.2
v -1.4 2.2 -3.2
v -1.2 1.9 -3.2
v -1.2 2 -3.2
v -1.2 2.2 -3.2
v -1.2 2.3 -3.2
v -1 2 -3.2
v -1 2.1 -3.2
v -1 2.3 -3.2
v -1 2.4 -3.2
v -0.8 2.1 -3.2
v -0.8 2.2 -3.2
v -0.8 2.4 -3.2
v -0.8 2.5 -3.2
v -0.6 2.2 -3.2
v -0.6 2.3 -3.2
v -0.6 2.5 -3.2
v -0.6 2.6 -3.2
v -0.4 2.3 -3.2
v -0.4 2.4 -3.2
v -0.4 2.6 -3.2
v -0.4 2.7 -3.2
v -0.2 2.4 -3.2
v -0.2 2.5 -3.2
v -0.2 2.7 -3.2
v -0.2 2.8 -3.2
v 0 2.5 -3.2
v 0 2.6 -3.2
v 0 2.8 -3.2
v 0 2.9 -3.2
v 0.2 2.6 -3.2
v 0.2 2.7 -3.2
v 0.2 2.9 -3.2
v 0.2 3 -3.2
v 0.4 2.7 -3.2
v 0.4 2.8 -3.2
v 0.4 3 -3.2
v 0.4 3.1 -3.2
v 0.6 2.8 -3.2
v 0.6 2.9 -3.2
v 0.6 3.1 -3.2
v 0.6 3.2 -3.2
v 0.8 2.9 -3.2
v 0.8 3 -3.2
v 1 3 -3.2
v 1 3.1 -3.2
v 1.2 3.1 -3.2
v 1.2 3.2 -3.2
v 3.2 -3.2 -3.2
v 3.2 3.2 -3.2
v -3.2 -3.2 3.2
v 3.2 -3.2 3.2
v -3.2 -3.2 -3.2
v 3.2 -3.2 -3.2
v -3.2 1.3 3.2
v 3.2 1.3 3.2
v -3 1.3 3
v 3.2 1.3 3
v -3.2 1.3 -3.2
v -3 1.3 -3.2
v -3 1.4 3
v 3.2 1.4 3
v -2.8 1.4 2.8
v 3.2 1.4 2.8
v -3 1.4 -3.2
v -2.8 1.4 -3.2
v -2.8 1.5 2.8
v 3.2 1.5 2.8
v -2.6 1.5 2.6
v 3.2 1.5 2.6
v -2.8 1.5 -3.2
v -2.6 1.5 -3.2
v -2.6 1.6 2.6
v 3.2 1.6 2.6
v -2.4 1.6 2.4
v 3.2 1.6 2.4
v -2.6 1.6 -3.2
v -2.4 1.6 -3.2
v -2.4 1.7 2.4
v 3.2 1.7 2.4
v -2.2 1.7 2.2
v 3.2 1.7 2.2
v -2.4 1.7 -3.2
v -2.2 1.7 -3.2
v -2.2 1.8 2.2
v 3.2 1.8 2.2
v -2 1.8 2
v 3.2 1.8 2
v -2.2 1.8 -3.2
v -2 1.8 -3.2
v -2 1.9 2
v 3.2 1.9 2
v -1.8 1.9 1.8
v 3.2 1.9 1.8
v -2 1.9 -3.2
v -1.8 1.9 -3.2
v -1.8 2 1.8
v 3.2 2 1.8
v -1.6 2 1.6
v 3.2 2 1.6
v -1.8 2 -3.2
v -1.6 2 -3.2
v -1.6 2.1 1.6
v 3.2 2.1 1.6
v -1.4 2.1 1.4
v 3.2 2.1 1.4
v -1.6 2.1 -3.2
v -1.4 2.1 -3.2
v -1.4 2.2 1.4
v 3.2 2.2 1.4
v -1.2 2.2 1.2
v 3.2 2.2 1.2
v -1.4 2.2 -3.2
v -1.2 2.2 -3.2
v -1.2 2.3 1.2
v 3.2 2.3 1.2
v -1 2.3 1
v 3.2 2.3 1
v -1.2 2.3 -3.2
v -1 2.3 -3.2
v -1 2.4 1
v 3.2 2.4 1
v -0.8 2.4 0.8
v 3.2 2.4 0.8
v -1 2.4 -3.2
v -0.8 2.4 -3.2
v -0.8 2.5 0.8
v 3.2 2.5 0.8
v -0.6 2.5 0.6
v 3.2 2.5 0.6
v -0.8 2.5 -3.2
v -0.6 2.5 -3.2
v -0.6 2.6 0.6
v 3.2 2.6 0.6
v -0.4 2.6 0.4
v 3.2 2.6 0.4
v -0.6 2.6 -3.2
v -0.4 2.6 -3.2
v -0.4 2.7 0.4
v 3.2 2.7 0.4
v -0.2 2.7 0.2
v 3.2 2.7 0.2
v -0.4 2.7 -3.2
v -0.2 2.7 -3.2
v -0.2 2.8 0.2
v 3.2 2.8 0.2
v 0 2.8 0
v 3.2 2.8 0
v -0.2 2.8 -3.2
v 0 2.8 -3.2
v 0 2.9 0
v 3.2 2.9 0
v 0.2 2.9 -0.2
v 3.2 2.9 -0.2
v 0 2.9 -3.2
v 0.2 2.9 -3.2
v 0.2 3 -0.2
v 3.2 3 -0.2
v 0.4 3 -0.4
v 3.2 3 -0.4
v 0.2 3 -3.2
v 0.4 3 -3.2
v 0.4 3.1 -0.4
v 3.2 3.1 -0.4
v 0.6 3.1 -0.6
v 3.2 3.1 -0.6
v 0.4 3.1 -3.2
v 0.6 3.1 -3.2
v 0.6 3.2 -0.6
v 3.2 3.2 -0.6
v 1.2 3.2 -1.2
v 3.2 3.2 -1.2
v 0.6 3.2 -3.2
v 1.2 3.2 -3.2
v 3.2 3.2 -3.2

# faces
f 3/2/1 2/2/1 1/2/1
f 4/2/1 2/2/1 3/2/1
f 5/1/1 4/1/1 3/1/1
f 6/1/1 4/1/1 5/1/1
f 9/1/1 8/1/1 7/1/1
f 10/1/1 8/1/1 9/1/1
f 13/1/1 12/1/1 11/1/1
f 14/1/1 12/1/1 13/1/1
f 17/1/1 16/1/1 15/1/1
f 18/1/1 16/1/1 17/1/1
f 21/1/1 20/1/1 19/1/1
f 22/1/1 20/1/1 21/1/1
f 25/1/1 24/1/1 23/1/1
f 26/1/1 24/1/1 25/1/1
f 29/1/1 28/1/1 27/1/1
f 30/1/1 28/1/1 29/1/1
f 33/1/1 32/1/1 31/1/1
f 34/1/1 32/1/1 33/1/1
f 37/1/1 36/1/1 35/1/1
f 38/1/1 36/1/1 37/1/1
f 41/1/1 40/1/1 39/1/1
f 42/1/1 40/1/1 41/1/1
f 45/1/1 44/1/1 43/1/1
f 46/1/1 44/1/1 45/1/1
f 49/1/1 48/1/1 47/1/1
f 50/1/1 48/1/1 49/1/1
f 53/1/1 52/1/1 51/1/1
f 54/1/1 52/1/1 53/1/1
f 57/1/1 56/1/1 55/1/1
f 58/1/1 56/1/1 57/1/1
f 61/1/1 60/1/1 59/1/1
f 62/1/1 60/1/1 61/1/1
f 65/1/1 64/1/1 63/1/1
f 66/1/1 64/1/1 65/1/1
f 69/1/1 68/1/1 67/1/1
f 70/1/1 68/1/1 69/1/1
f 73/1/1 72/1/1 71/1/1
f 74/1/1 72/1/1 73/1/1
f 77/1/1 76/1/1 75/1/1
f 78/1/1 76/1/1 77/1/1
f 81/1/1 80/1/1 79/1/1
f 82/1/1 80/1/1 81/1/1
f 83/2/2 84/2/2 85/2/2
f 85/2/2 84/2/2 86/2/2
f 85/1/2 86/1/2 87/1/2
f 86/2/2 84/2/2 87/2/2
f 87/2/2 84/2/2 88/2/2
f 87/1/2 88/1/2 89/1/2
f 88/2/2 84/2/2 89/2/2
f 89/2/2 84/2/2 90/2/2
f 85/1/2 87/1/2 91/1/2
f 87/1/2 89/1/2 91/1/2
f 89/1/2 90/1/2 91/1/2
f 91/1/2 90/1/2 92/1/2
f 90/2/2 84/2/2 93/2/2
f 92/1/2 90/1/2 93/1/2
f 93/2/2 84/2/2 94/2/2
f 92/1/2 93/1/2 95/1/2
f 93/1/2 94/1/2 95/1/2
f 95/1/2 94/1/2 96/1/2
f 94/2/2 84/2/2 97/2/2
f 96/1/2 94/1/2 97/1/2
f 97/2/2 84/2/2 98/2/2
f 96/1/2 97/1/2 99/1/2
f 97/1/2 98/1/2 99/1/2
f 99/1/2 98/1/2 100/1/2
f 98/2/2 84/2/2 101/2/2
f 100/1/2 98/1/2 101/1/2
f 101/2/2 84/2/2 102/2/2
f 100/1/2 101/1/2 103/1/2
f 101/1/2 102/1/2 103/1/2
f 103/1/2 102/1/2 104/1/2
f 102/2/2 84/2/2 105/2/2
f 104/1/2 102/1/2 105/1/2
f 105/2/2 84/2/2 106/2/2
f 104/1/2 105/1/2 107/1/2
f 105/1/2 106/1/2 107/1/2
f 107/1/2 106/1/2 108/1/2
f 106/2/2 84/2/2 109/2/2
f 108/1/2 106/1/2 109/1/2
f 109/2/2 84/2/2 110/2/2
f 108/1/2 109/1/2 111/1/2
f 109/1/2 110/1/2 111/1/2
f 111/1/2 110/1/2 112/1/2
f 110/2/2 84/2/2 113/2/2
f 112/1/2 110/1/2 113/1/2
f 113/2/2 84/2/2 114/2/2
f 112/1/2 113/1/2 115/1/2
f 113/1/2 114/1/2 115/1/2
f 115/1/2 114/1/2 116/1/2
f 114/2/2 84/2/2 117/2/2
f 116/1/2 114/1/2 117/1/2
f 117/2/2 84/2/2 118/2/2
f 116/1/2 117/1/2 119/1/2
f 117/1/2 118/1/2 119/1/2
f 119/1/2 118/1/2 120/1/2
f 118/2/2 84/2/2 121/2/2
f 120/1/2 118/1/2 121/1/2
f 121/2/2 84/2/2 122/2/2
f 120/1/2 121/1/2 123/1/2
f 121/1/2 122/1/2 123/1/2
f 123/1/2 122/1/2 124/1/2
f 122/2/2 84/2/2 125/2/2
f 124/1/2 122/1/2 125/1/2
f 125/2/2 84/2/2 126/2/2
f 124/1/2 125/1/2 127/1/2
f 125/1/2 126/1/2 127/1/2
f 127/1/2 126/1/2 128/1/2
f 126/2/2 84/2/2 129/2/2
f 128/1/2 126/1/2 129/1/2
f 129/2/2 84/2/2 130/2/2
f 128/1/2 129/1/2 131/1/2
f 129/1/2 130/1/2 131/1/2
f 131/1/2 130/1/2 132/1/2
f 130/2/2 84/2/2 133/2/2
f 132/1/2 130/1/2 133/1/2
f 133/2/2 84/2/2 134/2/2
f 132/1/2 133/1/2 135/1/2
f 133/1/2 134/1/2 135/1/2
f 135/1/2 134/1/2 136/1/2
f 134/2/2 84/2/2 137/2/2
f 136/1/2 134/1/2 137/1/2
f 137/2/2 84/2/2 138/2/2
f 136/1/2 137/1/2 139/1/2
f 137/1/2 138/1/2 139/1/2
f 139/1/2 138/1/2 140/1/2
f 138/2/2 84/2/2 141/2/2
f 140/1/2 138/1/2 141/1/2
f 141/2/2 84/2/2 142/2/2
f 140/1/2 141/1/2 143/1/2
f 141/1/2 142/1/2 143/1/2
f 143/1/2 142/1/2 144/1/2
f 142/2/2 84/2/2 145/2/2
f 144/1/2 142/1/2 145/1/2
f 145/2/2 84/2/2 146/2/2
f 144/1/2 145/1/2 147/1/2
f 145/1/2 146/1/2 147/1/2
f 147/1/2 146/1/2 148/1/2
f 146/2/2 84/2/2 149/2/2
f 148/1/2 146/1/2 149/1/2
f 149/2/2 84/2/2 150/2/2
f 148/1/2 149/1/2 151/1/2
f 149/1/2 150/1/2 151/1/2
f 151/1/2 150/1/2 152/1/2
f 150/2/2 84/2/2 153/2/2
f 152/1/2 150/1/2 153/1/2
f 153/2/2 84/2/2 154/2/2
f 152/1/2 153/1/2 155/1/2
f 153/1/2 154/1/2 155/1/2
f 155/1/2 154/1/2 156/1/2
f 154/2/2 84/2/2 157/2/2
f 156/1/2 154/1/2 157/1/2
f 157/2/2 84/2/2 158/2/2
f 156/1/2 157/1/2 159/1/2
f 157/1/2 158/1/2 159/1/2
f 159/1/2 158/1/2 160/1/2
f 158/2/2 84/2/2 161/2/2
f 160/1/2 158/1/2 161/1/2
f 161/2/2 84/2/2 162/2/2
f 160/1/2 161/1/2 163/1/2
f 161/1/2 162/1/2 163/1/2
f 163/1/2 162/1/2 164/1/2
f 162/2/2 84/2/2 165/2/2
f 164/1/2 162/1/2 165/1/2
f 165/2/2 84/2/2 166/2/2
f 164/1/2 165/1/2 167/1/2
f 165/1/2 166/1/2 167/1/2
f 166/2/2 84/2/2 168/2/2
f 167/1/2 166/1/2 168/1/2
f 168/2/2 84/2/2 169/2/2
f 173/2/3 171/2/3 170/2/3
f 173/1/3 172/1/3 171/1/3
f 174/1/3 172/1/3 173/1/3
f 175/2/3 174/2/3 173/2/3
f 175/1/3 172/1/3 174/1/3
f 176/1/3 172/1/3 175/1/3
f 177/2/3 173/2/3 170/2/3
f 177/2/3 175/2/3 173/2/3
f 177/2/3 176/2/3 175/2/3
f 178/1/3 172/1/3 176/1/3
f 178/2/3 176/2/3 177/2/3
f 179/2/3 177/2/3 170/2/3
f 180/1/3 178/1/3 177/1/3
f 180/2/3 177/2/3 179/2/3
f 181/1/3 172/1/3 178/1/3
f 181/1/3 178/1/3 180/1/3
f 184/1/3 183/1/3 182/1/3
f 185/1/3 183/1/3 184/1/3
f 188/1/3 187/1/3 186/1/3
f 189/1/3 187/1/3 188/1/3
f 192/1/3 191/1/3 190/1/3
f 193/1/3 191/1/3 192/1/3
f 196/1/3 195/1/3 194/1/3
f 197/1/3 195/1/3 196/1/3
f 200/1/3 199/1/3 198/1/3
f 201/1/3 199/1/3 200/1/3
f 204/1/3 203/1/3 202/1/3
f 205/1/3 203/1/3 204/1/3
f 208/1/3 207/1/3 206/1/3
f 209/1/3 207/1/3 208/1/3
f 212/1/3 211/1/3 210/1/3
f 213/1/3 211/1/3 212/1/3
f 216/1/3 215/1/3 214/1/3
f 217/1/3 215/1/3 216/1/3
f 220/1/3 219/1/3 218/1/3
f 221/1/3 219/1/3 220/1/3
f 224/1/3 223/1/3 222/1/3
f 225/1/3 223/1/3 224/1/3
f 228/1/3 227/1/3 226/1/3
f 229/1/3 227/1/3 228/1/3
f 232/1/3 231/1/3 230/1/3
f 233/1/3 231/1/3 232/1/3
f 236/1/3 235/1/3 234/1/3
f 237/1/3 235/1/3 236/1/3
f 240/1/3 239/1/3 238/1/3
f 241/1/3 239/1/3 240/1/3
f 244/1/3 243/1/3 242/1/3
f 245/1/3 243/1/3 244/1/3
f 248/1/3 247/1/3 246/1/3
f 249/1/3 247/1/3 248/1/3
f 252/1/3 251/1/3 250/1/3
f 253/1/3 251/1/3 252/1/3
f 256/1/3 255/1/3 254/1/3
f 257/1/3 255/1/3 256/1/3
f 258/2/4 259/2/4 261/2/4
f 259/1/4 260/1/4 261/1/4
f 261/1/4 260/1/4 262/1/4
f 262/1/4 260/1/4 263/1/4
f 261/2/4 262/2/4 265/2/4
f 263/1/4 264/1/4 265/1/4
f 262/1/4 263/1/4 265/1/4
f 265/1/4 264/1/4 266/1/4
f 266/1/4 264/1/4 267/1/4
f 265/2/4 266/2/4 269/2/4
f 267/1/4 268/1/4 269/1/4
f 266/1/4 267/1/4 269/1/4
f 269/1/4 268/1/4 270/1/4
f 270/1/4 268/1/4 271/1/4
f 269/2/4 270/2/4 273/2/4
f 271/1/4 272/1/4 273/1/4
f 270/1/4 271/1/4 273/1/4
f 273/1/4 272/1/4 274/1/4
f 274/1/4 272/1/4 275/1/4
f 273/2/4 274/2/4 277/2/4
f 275/1/4 276/1/4 277/1/4
f 274/1/4 275/1/4 277/1/4
f 277/1/4 276/1/4 278/1/4
f 278/1/4 276/1/4 279/1/4
f 277/2/4 278/2/4 281/2/4
f 279/1/4 280/1/4 281/1/4
f 278/1/4 279/1/4 281/1/4
f 281/1/4 280/1/4 282/1/4
f 282/1/4 280/1/4 283/1/4
f 281/2/4 282/2/4 285/2/4
f 283/1/4 284/1/4 285/1/4
f 282/1/4 283/1/4 285/1/4
f 285/1/4 284/1/4 286/1/4
f 286/1/4 284/1/4 287/1/4
f 285/2/4 286/2/4 289/2/4
f 287/1/4 288/1/4 289/1/4
f 286/1/4 287/1/4 289/1/4
f 289/1/4 288/1/4 290/1/4
f 290/1/4 288/1/4 291/1/4
f 289/2/4 290/2/4 293/2/4
f 291/1/4 292/1/4 293/1/4
f 290/1/4 291/1/4 293/1/4
f 293/1/4 292/1/4 294/1/4
f 294/1/4 292/1/4 295/1/4
f 293/2/4 294/2/4 297/2/4
f 295/1/4 296/1/4 297/1/4
f 294/1/4 295/1/4 297/1/4
f 297/1/4 296/1/4 298/1/4
f 298/1/4 296/1/4 299/1/4
f 297/2/4 298/2/4 301/2/4
f 299/1/4 300/1/4 301/1/4
f 298/1/4 299/1/4 301/1/4
f 301/1/4 300/1/4 302/1/4
f 302/1/4 300/1/4 303/1/4
f 301/2/4 302/2/4 305/2/4
f 303/1/4 304/1/4 305/1/4
f 302/1/4 303/1/4 305/1/4
f 305/1/4 304/1/4 306/1/4
f 306/1/4 304/1/4 307/1/4
f 305/2/4 306/2/4 309/2/4
f 307/1/4 308/1/4 309/1/4
f 306/1/4 307/1/4 309/1/4
f 309/1/4 308/1/4 310/1/4
f 310/1/4 308/1/4 311/1/4
f 309/2/4 310/2/4 313/2/4
f 311/1/4 312/1/4 313/1/4
f 310/1/4 311/1/4 313/1/4
f 313/1/4 312/1/4 314/1/4
f 314/1/4 312/1/4 315/1/4
f 313/2/4 314/2/4 317/2/4
f 315/1/4 316/1/4 317/1/4
f 314/1/4 315/1/4 317/1/4
f 317/1/4 316/1/4 318/1/4
f 318/1/4 316/1/4 319/1/4
f 317/2/4 318/2/4 321/2/4
f 319/1/4 320/1/4 321/1/4
f 318/1/4 319/1/4 321/1/4
f 321/1/4 320/1/4 322/1/4
f 322/1/4 320/1/4 323/1/4
f 321/2/4 322/2/4 325/2/4
f 323/1/4 324/1/4 325/1/4
f 322/1/4 323/1/4 325/1/4
f 325/1/4 324/1/4 326/1/4
f 326/1/4 324/1/4 327/1/4
f 325/2/4 326/2/4 329/2/4
f 327/1/4 328/1/4 329/1/4
f 326/1/4 327/1/4 329/1/4
f 329/1/4 328/1/4 330/1/4
f 330/1/4 328/1/4 331/1/4
f 329/2/4 330/2/4 333/2/4
f 331/1/4 332/1/4 333/1/4
f 330/1/4 331/1/4 333/1/4
f 333/1/4 332/1/4 334/1/4
f 334/1/4 332/1/4 335/1/4
f 333/2/4 334/2/4 337/2/4
f 335/1/4 336/1/4 337/1/4
f 334/1/4 335/1/4 337/1/4
f 337/1/4 336/1/4 338/1/4
f 337/2/4 338/2/4 339/2/4
f 338/1/4 336/1/4 339/1/4
f 339/1/4 336/1/4 340/1/4
f 339/2/4 340/2/4 341/2/4
f 340/1/4 336/1/4 341/1/4
f 341/1/4 336/1/4 342/1/4
f 258/2/4 261/2/4 343/2/4
f 261/2/4 265/2/4 343/2/4
f 341/2/4 342/2/4 343/2/4
f 339/2/4 341/2/4 343/2/4
f 337/2/4 339/2/4 343/2/4
f 333/2/4 337/2/4 343/2/4
f 329/2/4 333/2/4 343/2/4
f 325/2/4 329/2/4 343/2/4
f 321/2/4 325/2/4 343/2/4
f 317/2/4 321/2/4 343/2/4
f 313/2/4 317/2/4 343/2/4
f 309/2/4 313/2/4 343/2/4
f 305/2/4 309/2/4 343/2/4
f 301/2/4 305/2/4 343/2/4
f 297/2/4 301/2/4 343/2/4
f 293/2/4 297/2/4 343/2/4
f 289/2/4 293/2/4 343/2/4
f 285/2/4 289/2/4 343/2/4
f 281/2/4 285/2/4 343/2/4
f 277/2/4 281/2/4 343/2/4
f 273/2/4 277/2/4 343/2/4
f 269/2/4 273/2/4 343/2/4
f 265/2/4 269/2/4 343/2/4
f 343/2/4 342/2/4 344/2/4
f 347/2/5 346/2/5 345/2/5
f 348/2/5 346/2/5 347/2/5
f 349/1/6 350/1/6 351/1/6
f 351/1/6 350/1/6 352/1/6
f 349/1/6 351/1/6 353/1/6
f 353/1/6 351/1/6 354/1/6
f 355/1/6 356/1/6 357/1/6
f 357/1/6 356/1/6 358/1/6
f 355/1/6 357/1/6 359/1/6
f 359/1/6 357/1/6 360/1/6
f 361/1/6 362/1/6 363/1/6
f 363/1/6 362/1/6 364/1/6
f 361/1/6 363/1/6 365/1/6
f 365/1/6 363/1/6 366/1/6
f 367/1/6 368/1/6 369/1/6
f 369/1/6 368/1/6 370/1/6
f 367/1/6 369/1/6 371/1/6
f 371/1/6 369/1/6 372/1/6
f 373/1/6 374/1/6 375/1/6
f 375/1/6 374/1/6 376/1/6
f 373/1/6 375/1/6 377/1/6
f 377/1/6 375/1/6 378/1/6
f 379/1/6 380/1/6 381/1/6
f 381/1/6 380/1/6 382/1/6
f 379/1/6 381/1/6 383/1/6
f 383/1/6 381/1/6 384/1/6
f 385/1/6 386/1/6 387/1/6
f 387/1/6 386/1/6 388/1/6
f 385/1/6 387/1/6 389/1/6
f 389/1/6 387/1/6 390/1/6
f 391/1/6 392/1/6 393/1/6
f 393/1/6 392/1/6 394/1/6
f 391/1/6 393/1/6 395/1/6
f 395/1/6 393/1/6 396/1/6
f 397/1/6 398/1/6 399/1/6
f 399/1/6 398/1/6 400/1/6
f 397/1/6 399/1/6 401/1/6
f 401/1/6 399/1/6 402/1/6
f 403/1/6 404/1/6 405/1/6
f 405/1/6 404/1/6 406/1/6
f 403/1/6 405/1/6 407/1/6
f 407/1/6 405/1/6 408/1/6
f 409/1/6 410/1/6 411/1/6
f 411/1/6 410/1/6 412/1/6
f 409/1/6 411/1/6 413/1/6
f 413/1/6 411/1/6 414/1/6
f 415/1/6 416/1/6 417/1/6
f 417/1/6 416/1/6 418/1/6
f 415/1/6 417/1/6 419/1/6
f 419/1/6 417/1/6 420/1/6
f 421/1/6 422/1/6 423/1/6
f 423/1/6 422/1/6 424/1/6
f 421/1/6 423/1/6 425/1/6
f 425/1/6 423/1/6 426/1/6
f 427/1/6 428/1/6 429/1/6
f 429/1/6 428/1/6 430/1/6
f 427/1/6 429/1/6 431/1/6
f 431/1/6 429/1/6 432/1/6
f 433/1/6 434/1/6 435/1/6
f 435/1/6 434/1/6 436/1/6
f 433/1/6 435/1/6 437/1/6
f 437/1/6 435/1/6 438/1/6
f 439/1/6 440/1/6 441/1/6
f 441/1/6 440/1/6 442/1/6
f 439/1/6 441/1/6 443/1/6
f 443/1/6 441/1/6 444/1/6
f 445/1/6 446/1/6 447/1/6
f 447/1/6 446/1/6 448/1/6
f 445/1/6 447/1/6 449/1/6
f 449/1/6 447/1/6 450/1/6
f 451/1/6 452/1/6 453/1/6
f 453/1/6 452/1/6 454/1/6
f 451/1/6 453/1/6 455/1/6
f 455/1/6 453/1/6 456/1/6
f 457/1/6 458/1/6 459/1/6
f 459/1/6 458/1/6 460/1/6
f 457/1/6 459/1/6 461/1/6
f 461/1/6 459/1/6 462/1/6
f 463/1/6 464/1/6 465/1/6
f 465/1/6 464/1/6 466/1/6
f 463/1/6 465/1/6 467/1/6
f 465/2/6 466/2/6 468/2/6
f 467/1/6 465/1/6 468/1/6
f 468/2/6 466/2/6 469/2/6
