# MagicaVoxel @ Ephtracy

# group
o 

# material
mtllib CityStairsP1-0.mtl
usemtl palette

# normals
vn -1 0 0
vn 1 0 0
vn 0 0 1
vn 0 0 -1
vn 0 -1 0
vn 0 1 0

# texcoords
vt 0.716797 0.5
vt 0.939453 0.5
vt 0.958984 0.5
vt 0.978516 0.5

# verts
v -4.8 -4.8 4.8
v -4.8 -4.8 4.7
v -4.8 -4.8 -4.7
v -4.8 -4.8 -4.8
v -4.8 -4.1 4.7
v -4.8 -4.1 4
v -4.8 -4.1 3.9
v -4.8 -4.1 3.6
v -4.8 -4.1 3.4
v -4.8 -4.1 3
v -4.8 -4.1 1.8
v -4.8 -4.1 0.9
v -4.8 -4.1 0.8
v -4.8 -4.1 -0.8
v -4.8 -4.1 -0.9
v -4.8 -4.1 -1.8
v -4.8 -4.1 -1.9
v -4.8 -4.1 -2.4
v -4.8 -4.1 -2.5
v -4.8 -4.1 -2.9
v -4.8 -4.1 -3
v -4.8 -4.1 -4.3
v -4.8 -4.1 -4.4
v -4.8 -4.1 -4.7
v -4.8 -4 4.7
v -4.8 -4 4.5
v -4.8 -4 4
v -4.8 -4 3.4
v -4.8 -4 3
v -4.8 -4 1.8
v -4.8 -4 0.9
v -4.8 -4 0.8
v -4.8 -4 -0.8
v -4.8 -4 -0.9
v -4.8 -4 -1.8
v -4.8 -4 -1.9
v -4.8 -4 -2.4
v -4.8 -4 -2.5
v -4.8 -4 -2.9
v -4.8 -4 -3
v -4.8 -4 -3.6
v -4.8 -4 -3.9
v -4.8 -4 -4.3
v -4.8 -4 -4.4
v -4.8 -4 -4.5
v -4.8 -4 -4.7
v -4.8 1.6 4.8
v -4.8 1.6 4.5
v -4.8 1.6 3.9
v -4.8 1.6 3.6
v -4.8 1.6 -3.6
v -4.8 1.6 -3.9
v -4.8 1.6 -4.5
v -4.8 1.6 -4.8
v -4.7 -4.1 3.6
v -4.7 -4.1 3.5
v -4.7 -4.1 2.9
v -4.7 -4.1 2.5
v -4.7 -4.1 2.4
v -4.7 -4.1 1.9
v -4.7 -4 3.6
v -4.7 -4 3.5
v -4.7 -4 2.9
v -4.7 -4 2.5
v -4.7 -4 2.4
v -4.7 -4 1.9
v -4.6 -4.1 4
v -4.6 -4.1 3.9
v -4.6 -4.1 -4.3
v -4.6 -4.1 -4.4
v -4.6 -4 4.5
v -4.6 -4 4
v -4.6 -4 3.9
v -4.6 -4 -3.9
v -4.6 -4 -4.3
v -4.6 -4 -4.4
v -4.6 -4 -4.5
v -4.6 1.4 4.5
v -4.6 1.4 3.9
v -4.6 1.4 -3.9
v -4.6 1.4 -4.5
v -4.4 -4.1 3.5
v -4.4 -4.1 3.4
v -4.4 -4.1 3
v -4.4 -4.1 2.9
v -4.4 -4.1 2.5
v -4.4 -4.1 2.4
v -4.4 -4.1 1.9
v -4.4 -4.1 1.8
v -4.4 -4.1 0.9
v -4.4 -4.1 0.8
v -4.4 -4.1 -0.8
v -4.4 -4.1 -0.9
v -4.4 -4.1 -1.8
v -4.4 -4.1 -1.9
v -4.4 -4.1 -2.4
v -4.4 -4.1 -2.5
v -4.4 -4.1 -2.9
v -4.4 -4.1 -3
v -4.4 -4 3.6
v -4.4 -4 3.5
v -4.4 -4 3.4
v -4.4 -4 3
v -4.4 -4 2.9
v -4.4 -4 2.5
v -4.4 -4 2.4
v -4.4 -4 1.9
v -4.4 -4 1.8
v -4.4 -4 0.9
v -4.4 -4 0.8
v -4.4 -4 -0.8
v -4.4 -4 -0.9
v -4.4 -4 -1.8
v -4.4 -4 -1.9
v -4.4 -4 -2.4
v -4.4 -4 -2.5
v -4.4 -4 -2.9
v -4.4 -4 -3
v -4.4 -4 -3.6
v -4.4 -3.9 3.6
v -4.4 -3.9 -3.6
v -4 -3.9 3.6
v -4 -3.9 -3.6
v -4 -3.8 3.6
v -4 -3.8 -3.6
v -3.6 -3.8 3.6
v -3.6 -3.8 -3.6
v -3.6 -3.7 3.6
v -3.6 -3.7 -3.6
v -3.3 -4.1 4
v -3.3 -4.1 3.9
v -3.3 -4 4
v -3.3 -4 3.9
v -3.2 -3.7 3.6
v -3.2 -3.7 -3.6
v -3.2 -3.6 3.6
v -3.2 -3.6 -3.6
v -2.8 -3.6 3.6
v -2.8 -3.6 -3.6
v -2.8 -3.5 3.6
v -2.8 -3.5 -3.6
v -2.4 -3.5 3.6
v -2.4 -3.5 -3.6
v -2.4 -3.4 3.6
v -2.4 -3.4 -3.6
v -2 -3.4 3.6
v -2 -3.4 -3.6
v -2 -3.3 3.6
v -2 -3.3 -3.6
v -1.6 -3.3 3.6
v -1.6 -3.3 -3.6
v -1.6 -3.2 3.6
v -1.6 -3.2 -3.6
v -1.2 -3.2 3.6
v -1.2 -3.2 -3.6
v -1.2 -3.1 3.6
v -1.2 -3.1 -3.6
v -0.8 -3.1 3.6
v -0.8 -3.1 -3.6
v -0.8 -3 3.6
v -0.8 -3 -3.6
v -0.4 -3 3.6
v -0.4 -3 -3.6
v -0.4 -2.9 3.6
v -0.4 -2.9 -3.6
v 0 -2.9 3.6
v 0 -2.9 -3.6
v 0 -2.8 3.6
v 0 -2.8 -3.6
v 0.4 -2.8 3.6
v 0.4 -2.8 -3.6
v 0.4 -2.7 3.6
v 0.4 -2.7 -3.6
v 0.8 -2.7 3.6
v 0.8 -2.7 -3.6
v 0.8 -2.6 3.6
v 0.8 -2.6 -3.6
v 1.2 -2.6 3.6
v 1.2 -2.6 -3.6
v 1.2 -2.5 3.6
v 1.2 -2.5 -3.6
v 1.6 -2.5 3.6
v 1.6 -2.5 -3.6
v 1.6 -2.4 3.6
v 1.6 -2.4 -3.6
v 2 -2.4 3.6
v 2 -2.4 -3.6
v 2 -2.3 3.6
v 2 -2.3 -3.6
v 2.4 -2.3 3.6
v 2.4 -2.3 -3.6
v 2.4 -2.2 3.6
v 2.4 -2.2 -3.6
v 2.8 -2.2 3.6
v 2.8 -2.2 -3.6
v 2.8 -2.1 3.6
v 2.8 -2.1 -3.6
v 3.2 -2.1 3.6
v 3.2 -2.1 -3.6
v 3.2 -2 3.6
v 3.2 -2 -3.6
v 3.6 -2 3.6
v 3.6 -2 -3.6
v 3.6 -1.9 3.6
v 3.6 -1.9 -3.6
v 4 -1.9 3.6
v 4 -1.9 -3.6
v 4 -1.8 3.6
v 4 -1.8 -3.6
v 4.4 -1.8 3.6
v 4.4 -1.8 -3.6
v 4.4 -1.7 3.6
v 4.4 -1.7 -3.6
v -3.4 -4.1 4
v -3.4 -4.1 3.9
v -3.4 -4 4
v -3.4 -4 3.9
v 4.8 -4.8 4.8
v 4.8 -4.8 4.7
v 4.8 -4.8 -4.7
v 4.8 -4.8 -4.8
v 4.8 -4 4.7
v 4.8 -4 4.5
v 4.8 -4 3.9
v 4.8 -4 -3.9
v 4.8 -4 -4.5
v 4.8 -4 -4.7
v 4.8 -1.7 3.6
v 4.8 -1.7 -3.6
v 4.8 1.4 4.5
v 4.8 1.4 3.9
v 4.8 1.4 -3.9
v 4.8 1.4 -4.5
v 4.8 1.6 4.8
v 4.8 1.6 4.5
v 4.8 1.6 3.9
v 4.8 1.6 3.6
v 4.8 1.6 -3.6
v 4.8 1.6 -3.9
v 4.8 1.6 -4.5
v 4.8 1.6 -4.8
v -4.8 -4.8 4.8
v -4.8 1.6 4.8
v 4.8 -4.8 4.8
v 4.8 1.6 4.8
v -4.8 -4.1 3.9
v -4.8 1.6 3.9
v -4.7 -4.1 3.9
v -4.7 -4 3.9
v -4.6 -4.1 3.9
v -4.6 -4 3.9
v -4.6 1.4 3.9
v -3.4 -4.1 3.9
v -3.4 -4 3.9
v -3.3 -4.1 3.9
v -3.3 -4 3.9
v 4.8 1.4 3.9
v 4.8 1.6 3.9
v -4.8 -4.1 3.4
v -4.8 -4 3.4
v -4.4 -4.1 3.4
v -4.4 -4 3.4
v -4.7 -4.1 2.9
v -4.7 -4 2.9
v -4.4 -4.1 2.9
v -4.4 -4 2.9
v -4.7 -4.1 2.4
v -4.7 -4 2.4
v -4.4 -4.1 2.4
v -4.4 -4 2.4
v -4.8 -4.1 1.8
v -4.8 -4 1.8
v -4.4 -4.1 1.8
v -4.4 -4 1.8
v -4.8 -4.1 0.8
v -4.8 -4 0.8
v -4.4 -4.1 0.8
v -4.4 -4 0.8
v -4.8 -4.1 -0.9
v -4.8 -4 -0.9
v -4.4 -4.1 -0.9
v -4.4 -4 -0.9
v -4.8 -4.1 -1.9
v -4.8 -4 -1.9
v -4.4 -4.1 -1.9
v -4.4 -4 -1.9
v -4.8 -4.1 -2.5
v -4.8 -4 -2.5
v -4.4 -4.1 -2.5
v -4.4 -4 -2.5
v -4.8 -4.1 -3
v -4.8 -4 -3
v -4.4 -4.1 -3
v -4.4 -4 -3
v -4.8 -4 -3.6
v -4.8 1.6 -3.6
v -4.4 -4 -3.6
v -4.4 -3.9 -3.6
v -4 -3.9 -3.6
v -4 -3.8 -3.6
v -3.6 -3.8 -3.6
v -3.6 -3.7 -3.6
v -3.2 -3.7 -3.6
v -3.2 -3.6 -3.6
v -2.8 -3.6 -3.6
v -2.8 -3.5 -3.6
v -2.4 -3.5 -3.6
v -2.4 -3.4 -3.6
v -2 -3.4 -3.6
v -2 -3.3 -3.6
v -1.6 -3.3 -3.6
v -1.6 -3.2 -3.6
v -1.2 -3.2 -3.6
v -1.2 -3.1 -3.6
v -0.8 -3.1 -3.6
v -0.8 -3 -3.6
v -0.4 -3 -3.6
v -0.4 -2.9 -3.6
v 0 -2.9 -3.6
v 0 -2.8 -3.6
v 0.4 -2.8 -3.6
v 0.4 -2.7 -3.6
v 0.8 -2.7 -3.6
v 0.8 -2.6 -3.6
v 1.2 -2.6 -3.6
v 1.2 -2.5 -3.6
v 1.6 -2.5 -3.6
v 1.6 -2.4 -3.6
v 2 -2.4 -3.6
v 2 -2.3 -3.6
v 2.4 -2.3 -3.6
v 2.4 -2.2 -3.6
v 2.8 -2.2 -3.6
v 2.8 -2.1 -3.6
v 3.2 -2.1 -3.6
v 3.2 -2 -3.6
v 3.6 -2 -3.6
v 3.6 -1.9 -3.6
v 4 -1.9 -3.6
v 4 -1.8 -3.6
v 4.4 -1.8 -3.6
v 4.4 -1.7 -3.6
v 4.8 -1.7 -3.6
v 4.8 1.6 -3.6
v -4.8 -4.1 -4.4
v -4.8 -4 -4.4
v -4.6 -4.1 -4.4
v -4.6 -4 -4.4
v -4.8 -4 -4.5
v -4.8 1.6 -4.5
v -4.6 -4 -4.5
v -4.6 1.4 -4.5
v 4.8 1.4 -4.5
v 4.8 1.6 -4.5
v -4.8 -4 4.5
v -4.8 1.6 4.5
v -4.6 -4 4.5
v -4.6 1.4 4.5
v 4.8 1.4 4.5
v 4.8 1.6 4.5
v -4.8 -4.1 4
v -4.8 -4 4
v -4.6 -4.1 4
v -4.6 -4 4
v -3.4 -4.1 4
v -3.4 -4 4
v -3.3 -4.1 4
v -3.3 -4 4
v -4.8 -4.1 3.6
v -4.8 1.6 3.6
v -4.7 -4.1 3.6
v -4.7 -4 3.6
v -4.4 -4 3.6
v -4.4 -3.9 3.6
v -4 -3.9 3.6
v -4 -3.8 3.6
v -3.6 -3.8 3.6
v -3.6 -3.7 3.6
v -3.2 -3.7 3.6
v -3.2 -3.6 3.6
v -2.8 -3.6 3.6
v -2.8 -3.5 3.6
v -2.4 -3.5 3.6
v -2.4 -3.4 3.6
v -2 -3.4 3.6
v -2 -3.3 3.6
v -1.6 -3.3 3.6
v -1.6 -3.2 3.6
v -1.2 -3.2 3.6
v -1.2 -3.1 3.6
v -0.8 -3.1 3.6
v -0.8 -3 3.6
v -0.4 -3 3.6
v -0.4 -2.9 3.6
v 0 -2.9 3.6
v 0 -2.8 3.6
v 0.4 -2.8 3.6
v 0.4 -2.7 3.6
v 0.8 -2.7 3.6
v 0.8 -2.6 3.6
v 1.2 -2.6 3.6
v 1.2 -2.5 3.6
v 1.6 -2.5 3.6
v 1.6 -2.4 3.6
v 2 -2.4 3.6
v 2 -2.3 3.6
v 2.4 -2.3 3.6
v 2.4 -2.2 3.6
v 2.8 -2.2 3.6
v 2.8 -2.1 3.6
v 3.2 -2.1 3.6
v 3.2 -2 3.6
v 3.6 -2 3.6
v 3.6 -1.9 3.6
v 4 -1.9 3.6
v 4 -1.8 3.6
v 4.4 -1.8 3.6
v 4.4 -1.7 3.6
v 4.8 -1.7 3.6
v 4.8 1.6 3.6
v -4.7 -4.1 3.5
v -4.7 -4 3.5
v -4.4 -4.1 3.5
v -4.4 -4 3.5
v -4.8 -4.1 3
v -4.8 -4 3
v -4.4 -4.1 3
v -4.4 -4 3
v -4.7 -4.1 2.5
v -4.7 -4 2.5
v -4.4 -4.1 2.5
v -4.4 -4 2.5
v -4.7 -4.1 1.9
v -4.7 -4 1.9
v -4.4 -4.1 1.9
v -4.4 -4 1.9
v -4.8 -4.1 0.9
v -4.8 -4 0.9
v -4.4 -4.1 0.9
v -4.4 -4 0.9
v -4.8 -4.1 -0.8
v -4.8 -4 -0.8
v -4.4 -4.1 -0.8
v -4.4 -4 -0.8
v -4.8 -4.1 -1.8
v -4.8 -4 -1.8
v -4.4 -4.1 -1.8
v -4.4 -4 -1.8
v -4.8 -4.1 -2.4
v -4.8 -4 -2.4
v -4.4 -4.1 -2.4
v -4.4 -4 -2.4
v -4.8 -4.1 -2.9
v -4.8 -4 -2.9
v -4.4 -4.1 -2.9
v -4.4 -4 -2.9
v -4.8 -4 -3.9
v -4.8 1.6 -3.9
v -4.6 -4 -3.9
v -4.6 1.4 -3.9
v 4.8 1.4 -3.9
v 4.8 1.6 -3.9
v -4.8 -4.1 -4.3
v -4.8 -4 -4.3
v -4.6 -4.1 -4.3
v -4.6 -4 -4.3
v -4.8 -4.8 -4.8
v -4.8 1.6 -4.8
v 4.8 -4.8 -4.8
v 4.8 1.6 -4.8
v -4.8 -4.8 4.8
v 4.8 -4.8 4.8
v -4.8 -4.8 4.7
v 4.8 -4.8 4.7
v -4.8 -4.8 -4.7
v 4.8 -4.8 -4.7
v -4.8 -4.8 -4.8
v 4.8 -4.8 -4.8
v -3.4 -4 4
v -3.3 -4 4
v -3.4 -4 3.9
v -3.3 -4 3.9
v -4.8 -4.1 4
v -4.6 -4.1 4
v -3.4 -4.1 4
v -3.3 -4.1 4
v -4.8 -4.1 3.9
v -4.7 -4.1 3.9
v -4.6 -4.1 3.9
v -3.4 -4.1 3.9
v -3.3 -4.1 3.9
v -4.8 -4.1 3.6
v -4.7 -4.1 3.6
v -4.7 -4.1 3.5
v -4.4 -4.1 3.5
v -4.8 -4.1 3.4
v -4.4 -4.1 3.4
v -4.8 -4.1 3
v -4.4 -4.1 3
v -4.7 -4.1 2.9
v -4.4 -4.1 2.9
v -4.7 -4.1 2.5
v -4.4 -4.1 2.5
v -4.7 -4.1 2.4
v -4.4 -4.1 2.4
v -4.7 -4.1 1.9
v -4.4 -4.1 1.9
v -4.8 -4.1 1.8
v -4.4 -4.1 1.8
v -4.8 -4.1 0.9
v -4.4 -4.1 0.9
v -4.8 -4.1 0.8
v -4.4 -4.1 0.8
v -4.8 -4.1 -0.8
v -4.4 -4.1 -0.8
v -4.8 -4.1 -0.9
v -4.4 -4.1 -0.9
v -4.8 -4.1 -1.8
v -4.4 -4.1 -1.8
v -4.8 -4.1 -1.9
v -4.4 -4.1 -1.9
v -4.8 -4.1 -2.4
v -4.4 -4.1 -2.4
v -4.8 -4.1 -2.5
v -4.4 -4.1 -2.5
v -4.8 -4.1 -2.9
v -4.4 -4.1 -2.9
v -4.8 -4.1 -3
v -4.4 -4.1 -3
v -4.8 -4.1 -4.3
v -4.6 -4.1 -4.3
v -4.8 -4.1 -4.4
v -4.6 -4.1 -4.4
v -4.8 -4 4.5
v -4.6 -4 4.5
v -4.8 -4 4
v -4.6 -4 4
v -4.7 -4 3.6
v -4.4 -4 3.6
v -4.7 -4 3.5
v -4.4 -4 3.5
v -4.8 -4 3.4
v -4.4 -4 3.4
v -4.8 -4 3
v -4.4 -4 3
v -4.7 -4 2.9
v -4.4 -4 2.9
v -4.7 -4 2.5
v -4.4 -4 2.5
v -4.7 -4 2.4
v -4.4 -4 2.4
v -4.7 -4 1.9
v -4.4 -4 1.9
v -4.8 -4 1.8
v -4.4 -4 1.8
v -4.8 -4 0.9
v -4.4 -4 0.9
v -4.8 -4 0.8
v -4.4 -4 0.8
v -4.8 -4 -0.8
v -4.4 -4 -0.8
v -4.8 -4 -0.9
v -4.4 -4 -0.9
v -4.8 -4 -1.8
v -4.4 -4 -1.8
v -4.8 -4 -1.9
v -4.4 -4 -1.9
v -4.8 -4 -2.4
v -4.4 -4 -2.4
v -4.8 -4 -2.5
v -4.4 -4 -2.5
v -4.8 -4 -2.9
v -4.4 -4 -2.9
v -4.8 -4 -3
v -4.4 -4 -3
v -4.8 -4 -3.6
v -4.4 -4 -3.6
v -4.8 -4 -3.9
v -4.6 -4 -3.9
v -4.8 -4 -4.3
v -4.6 -4 -4.3
v -4.8 -4 -4.4
v -4.6 -4 -4.4
v -4.8 -4 -4.5
v -4.6 -4 -4.5
v -4.4 -3.9 3.6
v -4 -3.9 3.6
v -4.4 -3.9 -3.6
v -4 -3.9 -3.6
v -4 -3.8 3.6
v -3.6 -3.8 3.6
v -4 -3.8 -3.6
v -3.6 -3.8 -3.6
v -3.6 -3.7 3.6
v -3.2 -3.7 3.6
v -3.6 -3.7 -3.6
v -3.2 -3.7 -3.6
v -3.2 -3.6 3.6
v -2.8 -3.6 3.6
v -3.2 -3.6 -3.6
v -2.8 -3.6 -3.6
v -2.8 -3.5 3.6
v -2.4 -3.5 3.6
v -2.8 -3.5 -3.6
v -2.4 -3.5 -3.6
v -2.4 -3.4 3.6
v -2 -3.4 3.6
v -2.4 -3.4 -3.6
v -2 -3.4 -3.6
v -2 -3.3 3.6
v -1.6 -3.3 3.6
v -2 -3.3 -3.6
v -1.6 -3.3 -3.6
v -1.6 -3.2 3.6
v -1.2 -3.2 3.6
v -1.6 -3.2 -3.6
v -1.2 -3.2 -3.6
v -1.2 -3.1 3.6
v -0.8 -3.1 3.6
v -1.2 -3.1 -3.6
v -0.8 -3.1 -3.6
v -0.8 -3 3.6
v -0.4 -3 3.6
v -0.8 -3 -3.6
v -0.4 -3 -3.6
v -0.4 -2.9 3.6
v 0 -2.9 3.6
v -0.4 -2.9 -3.6
v 0 -2.9 -3.6
v 0 -2.8 3.6
v 0.4 -2.8 3.6
v 0 -2.8 -3.6
v 0.4 -2.8 -3.6
v 0.4 -2.7 3.6
v 0.8 -2.7 3.6
v 0.4 -2.7 -3.6
v 0.8 -2.7 -3.6
v 0.8 -2.6 3.6
v 1.2 -2.6 3.6
v 0.8 -2.6 -3.6
v 1.2 -2.6 -3.6
v 1.2 -2.5 3.6
v 1.6 -2.5 3.6
v 1.2 -2.5 -3.6
v 1.6 -2.5 -3.6
v 1.6 -2.4 3.6
v 2 -2.4 3.6
v 1.6 -2.4 -3.6
v 2 -2.4 -3.6
v 2 -2.3 3.6
v 2.4 -2.3 3.6
v 2 -2.3 -3.6
v 2.4 -2.3 -3.6
v 2.4 -2.2 3.6
v 2.8 -2.2 3.6
v 2.4 -2.2 -3.6
v 2.8 -2.2 -3.6
v 2.8 -2.1 3.6
v 3.2 -2.1 3.6
v 2.8 -2.1 -3.6
v 3.2 -2.1 -3.6
v 3.2 -2 3.6
v 3.6 -2 3.6
v 3.2 -2 -3.6
v 3.6 -2 -3.6
v 3.6 -1.9 3.6
v 4 -1.9 3.6
v 3.6 -1.9 -3.6
v 4 -1.9 -3.6
v 4 -1.8 3.6
v 4.4 -1.8 3.6
v 4 -1.8 -3.6
v 4.4 -1.8 -3.6
v 4.4 -1.7 3.6
v 4.8 -1.7 3.6
v 4.4 -1.7 -3.6
v 4.8 -1.7 -3.6
v -4.6 1.4 4.5
v 4.8 1.4 4.5
v -4.6 1.4 3.9
v 4.8 1.4 3.9
v -4.6 1.4 -3.9
v 4.8 1.4 -3.9
v -4.6 1.4 -4.5
v 4.8 1.4 -4.5
v -4.8 1.6 4.8
v 4.8 1.6 4.8
v -4.8 1.6 4.5
v 4.8 1.6 4.5
v -4.8 1.6 3.9
v 4.8 1.6 3.9
v -4.8 1.6 3.6
v 4.8 1.6 3.6
v -4.8 1.6 -3.6
v 4.8 1.6 -3.6
v -4.8 1.6 -3.9
v 4.8 1.6 -3.9
v -4.8 1.6 -4.5
v 4.8 1.6 -4.5
v -4.8 1.6 -4.8
v 4.8 1.6 -4.8

# faces
f 5/3/1 2/3/1 1/3/1
f 5/2/1 3/2/1 2/2/1
f 6/2/1 3/2/1 5/2/1
f 7/2/1 3/2/1 6/2/1
f 8/2/1 3/2/1 7/2/1
f 9/2/1 3/2/1 8/2/1
f 10/2/1 3/2/1 9/2/1
f 11/2/1 3/2/1 10/2/1
f 12/2/1 3/2/1 11/2/1
f 13/2/1 3/2/1 12/2/1
f 14/2/1 3/2/1 13/2/1
f 15/2/1 3/2/1 14/2/1
f 16/2/1 3/2/1 15/2/1
f 17/2/1 3/2/1 16/2/1
f 18/2/1 3/2/1 17/2/1
f 19/2/1 3/2/1 18/2/1
f 20/2/1 3/2/1 19/2/1
f 21/2/1 3/2/1 20/2/1
f 22/2/1 3/2/1 21/2/1
f 23/2/1 3/2/1 22/2/1
f 24/3/1 4/3/1 3/3/1
f 24/2/1 3/2/1 23/2/1
f 25/3/1 5/3/1 1/3/1
f 25/4/1 6/4/1 5/4/1
f 26/4/1 6/4/1 25/4/1
f 27/4/1 6/4/1 26/4/1
f 28/4/1 10/4/1 9/4/1
f 29/4/1 10/4/1 28/4/1
f 30/4/1 12/4/1 11/4/1
f 31/4/1 12/4/1 30/4/1
f 32/4/1 14/4/1 13/4/1
f 33/4/1 14/4/1 32/4/1
f 34/4/1 16/4/1 15/4/1
f 35/4/1 16/4/1 34/4/1
f 36/4/1 18/4/1 17/4/1
f 37/4/1 18/4/1 36/4/1
f 38/4/1 20/4/1 19/4/1
f 39/4/1 20/4/1 38/4/1
f 40/4/1 22/4/1 21/4/1
f 41/4/1 22/4/1 40/4/1
f 42/4/1 22/4/1 41/4/1
f 43/4/1 22/4/1 42/4/1
f 44/4/1 24/4/1 23/4/1
f 45/4/1 24/4/1 44/4/1
f 46/3/1 4/3/1 24/3/1
f 46/4/1 24/4/1 45/4/1
f 47/3/1 25/3/1 1/3/1
f 47/3/1 26/3/1 25/3/1
f 48/3/1 26/3/1 47/3/1
f 49/3/1 8/3/1 7/3/1
f 50/3/1 8/3/1 49/3/1
f 51/3/1 42/3/1 41/3/1
f 52/3/1 42/3/1 51/3/1
f 53/3/1 46/3/1 45/3/1
f 54/3/1 4/3/1 46/3/1
f 54/3/1 46/3/1 53/3/1
f 61/4/1 56/4/1 55/4/1
f 62/4/1 56/4/1 61/4/1
f 63/4/1 58/4/1 57/4/1
f 64/4/1 58/4/1 63/4/1
f 65/4/1 60/4/1 59/4/1
f 66/4/1 60/4/1 65/4/1
f 72/1/1 68/1/1 67/1/1
f 73/1/1 68/1/1 72/1/1
f 75/1/1 70/1/1 69/1/1
f 76/1/1 70/1/1 75/1/1
f 78/1/1 73/1/1 72/1/1
f 78/1/1 72/1/1 71/1/1
f 79/1/1 73/1/1 78/1/1
f 80/1/1 77/1/1 76/1/1
f 80/1/1 76/1/1 75/1/1
f 80/1/1 75/1/1 74/1/1
f 81/1/1 77/1/1 80/1/1
f 101/3/1 83/3/1 82/3/1
f 102/3/1 83/3/1 101/3/1
f 103/3/1 85/3/1 84/3/1
f 104/3/1 85/3/1 103/3/1
f 105/3/1 87/3/1 86/3/1
f 106/3/1 87/3/1 105/3/1
f 107/3/1 89/3/1 88/3/1
f 108/3/1 89/3/1 107/3/1
f 109/3/1 91/3/1 90/3/1
f 110/3/1 91/3/1 109/3/1
f 111/3/1 93/3/1 92/3/1
f 112/3/1 93/3/1 111/3/1
f 113/3/1 95/3/1 94/3/1
f 114/3/1 95/3/1 113/3/1
f 115/3/1 97/3/1 96/3/1
f 116/3/1 97/3/1 115/3/1
f 117/3/1 99/3/1 98/3/1
f 118/3/1 99/3/1 117/3/1
f 120/3/1 116/3/1 115/3/1
f 120/3/1 119/3/1 118/3/1
f 120/3/1 118/3/1 117/3/1
f 120/3/1 117/3/1 116/3/1
f 120/3/1 102/3/1 101/3/1
f 120/3/1 115/3/1 114/3/1
f 120/3/1 104/3/1 103/3/1
f 120/3/1 113/3/1 112/3/1
f 120/3/1 106/3/1 105/3/1
f 120/3/1 111/3/1 110/3/1
f 120/3/1 108/3/1 107/3/1
f 120/3/1 109/3/1 108/3/1
f 120/3/1 110/3/1 109/3/1
f 120/3/1 107/3/1 106/3/1
f 120/3/1 112/3/1 111/3/1
f 120/3/1 105/3/1 104/3/1
f 120/3/1 114/3/1 113/3/1
f 120/3/1 103/3/1 102/3/1
f 120/3/1 101/3/1 100/3/1
f 121/3/1 119/3/1 120/3/1
f 124/3/1 123/3/1 122/3/1
f 125/3/1 123/3/1 124/3/1
f 128/3/1 127/3/1 126/3/1
f 129/3/1 127/3/1 128/3/1
f 132/2/1 131/2/1 130/2/1
f 133/2/1 131/2/1 132/2/1
f 136/3/1 135/3/1 134/3/1
f 137/3/1 135/3/1 136/3/1
f 140/3/1 139/3/1 138/3/1
f 141/3/1 139/3/1 140/3/1
f 144/3/1 143/3/1 142/3/1
f 145/3/1 143/3/1 144/3/1
f 148/3/1 147/3/1 146/3/1
f 149/3/1 147/3/1 148/3/1
f 152/3/1 151/3/1 150/3/1
f 153/3/1 151/3/1 152/3/1
f 156/3/1 155/3/1 154/3/1
f 157/3/1 155/3/1 156/3/1
f 160/3/1 159/3/1 158/3/1
f 161/3/1 159/3/1 160/3/1
f 164/3/1 163/3/1 162/3/1
f 165/3/1 163/3/1 164/3/1
f 168/3/1 167/3/1 166/3/1
f 169/3/1 167/3/1 168/3/1
f 172/3/1 171/3/1 170/3/1
f 173/3/1 171/3/1 172/3/1
f 176/3/1 175/3/1 174/3/1
f 177/3/1 175/3/1 176/3/1
f 180/3/1 179/3/1 178/3/1
f 181/3/1 179/3/1 180/3/1
f 184/3/1 183/3/1 182/3/1
f 185/3/1 183/3/1 184/3/1
f 188/3/1 187/3/1 186/3/1
f 189/3/1 187/3/1 188/3/1
f 192/3/1 191/3/1 190/3/1
f 193/3/1 191/3/1 192/3/1
f 196/3/1 195/3/1 194/3/1
f 197/3/1 195/3/1 196/3/1
f 200/3/1 199/3/1 198/3/1
f 201/3/1 199/3/1 200/3/1
f 204/3/1 203/3/1 202/3/1
f 205/3/1 203/3/1 204/3/1
f 208/3/1 207/3/1 206/3/1
f 209/3/1 207/3/1 208/3/1
f 212/3/1 211/3/1 210/3/1
f 213/3/1 211/3/1 212/3/1
f 214/2/2 215/2/2 216/2/2
f 216/2/2 215/2/2 217/2/2
f 218/3/2 219/3/2 222/3/2
f 219/2/2 220/2/2 222/2/2
f 222/2/2 220/2/2 223/2/2
f 223/2/2 220/2/2 224/2/2
f 224/2/2 220/2/2 225/2/2
f 225/2/2 220/2/2 226/2/2
f 220/3/2 221/3/2 227/3/2
f 226/2/2 220/2/2 227/2/2
f 224/3/2 225/3/2 228/3/2
f 228/3/2 225/3/2 229/3/2
f 222/3/2 223/3/2 230/3/2
f 223/1/2 224/1/2 230/1/2
f 224/3/2 228/3/2 231/3/2
f 230/1/2 224/1/2 231/1/2
f 225/1/2 226/1/2 232/1/2
f 229/3/2 225/3/2 232/3/2
f 226/3/2 227/3/2 233/3/2
f 232/1/2 226/1/2 233/1/2
f 218/3/2 222/3/2 234/3/2
f 222/3/2 230/3/2 234/3/2
f 234/3/2 230/3/2 235/3/2
f 231/3/2 228/3/2 236/3/2
f 236/3/2 228/3/2 237/3/2
f 229/3/2 232/3/2 238/3/2
f 238/3/2 232/3/2 239/3/2
f 233/3/2 227/3/2 240/3/2
f 227/3/2 221/3/2 241/3/2
f 240/3/2 227/3/2 241/3/2
f 244/3/3 243/3/3 242/3/3
f 245/3/3 243/3/3 244/3/3
f 248/3/3 247/3/3 246/3/3
f 249/3/3 247/3/3 248/3/3
f 250/4/3 249/4/3 248/4/3
f 251/3/3 247/3/3 249/3/3
f 251/4/3 249/4/3 250/4/3
f 252/3/3 247/3/3 251/3/3
f 255/2/3 254/2/3 253/2/3
f 256/2/3 254/2/3 255/2/3
f 257/3/3 247/3/3 252/3/3
f 258/3/3 247/3/3 257/3/3
f 261/4/3 260/4/3 259/4/3
f 262/4/3 260/4/3 261/4/3
f 265/4/3 264/4/3 263/4/3
f 266/4/3 264/4/3 265/4/3
f 269/4/3 268/4/3 267/4/3
f 270/4/3 268/4/3 269/4/3
f 273/4/3 272/4/3 271/4/3
f 274/4/3 272/4/3 273/4/3
f 277/4/3 276/4/3 275/4/3
f 278/4/3 276/4/3 277/4/3
f 281/4/3 280/4/3 279/4/3
f 282/4/3 280/4/3 281/4/3
f 285/4/3 284/4/3 283/4/3
f 286/4/3 284/4/3 285/4/3
f 289/4/3 288/4/3 287/4/3
f 290/4/3 288/4/3 289/4/3
f 293/4/3 292/4/3 291/4/3
f 294/4/3 292/4/3 293/4/3
f 297/3/3 296/3/3 295/3/3
f 298/3/3 296/3/3 297/3/3
f 299/3/3 296/3/3 298/3/3
f 300/3/3 296/3/3 299/3/3
f 301/3/3 296/3/3 300/3/3
f 302/3/3 296/3/3 301/3/3
f 303/3/3 296/3/3 302/3/3
f 304/3/3 296/3/3 303/3/3
f 305/3/3 296/3/3 304/3/3
f 306/3/3 296/3/3 305/3/3
f 307/3/3 296/3/3 306/3/3
f 308/3/3 296/3/3 307/3/3
f 309/3/3 296/3/3 308/3/3
f 310/3/3 296/3/3 309/3/3
f 311/3/3 296/3/3 310/3/3
f 312/3/3 296/3/3 311/3/3
f 313/3/3 296/3/3 312/3/3
f 314/3/3 296/3/3 313/3/3
f 315/3/3 296/3/3 314/3/3
f 316/3/3 296/3/3 315/3/3
f 317/3/3 296/3/3 316/3/3
f 318/3/3 296/3/3 317/3/3
f 319/3/3 296/3/3 318/3/3
f 320/3/3 296/3/3 319/3/3
f 321/3/3 296/3/3 320/3/3
f 322/3/3 296/3/3 321/3/3
f 323/3/3 296/3/3 322/3/3
f 324/3/3 296/3/3 323/3/3
f 325/3/3 296/3/3 324/3/3
f 326/3/3 296/3/3 325/3/3
f 327/3/3 296/3/3 326/3/3
f 328/3/3 296/3/3 327/3/3
f 329/3/3 296/3/3 328/3/3
f 330/3/3 296/3/3 329/3/3
f 331/3/3 296/3/3 330/3/3
f 332/3/3 296/3/3 331/3/3
f 333/3/3 296/3/3 332/3/3
f 334/3/3 296/3/3 333/3/3
f 335/3/3 296/3/3 334/3/3
f 336/3/3 296/3/3 335/3/3
f 337/3/3 296/3/3 336/3/3
f 338/3/3 296/3/3 337/3/3
f 339/3/3 296/3/3 338/3/3
f 340/3/3 296/3/3 339/3/3
f 341/3/3 296/3/3 340/3/3
f 342/3/3 296/3/3 341/3/3
f 343/3/3 296/3/3 342/3/3
f 344/3/3 296/3/3 343/3/3
f 347/4/3 346/4/3 345/4/3
f 348/4/3 346/4/3 347/4/3
f 351/3/3 350/3/3 349/3/3
f 352/3/3 350/3/3 351/3/3
f 353/3/3 350/3/3 352/3/3
f 354/3/3 350/3/3 353/3/3
f 355/3/4 356/3/4 357/3/4
f 357/3/4 356/3/4 358/3/4
f 358/3/4 356/3/4 359/3/4
f 359/3/4 356/3/4 360/3/4
f 361/4/4 362/4/4 363/4/4
f 363/4/4 362/4/4 364/4/4
f 365/2/4 366/2/4 367/2/4
f 367/2/4 366/2/4 368/2/4
f 369/3/4 370/3/4 371/3/4
f 371/3/4 370/3/4 372/3/4
f 372/3/4 370/3/4 373/3/4
f 373/3/4 370/3/4 374/3/4
f 374/3/4 370/3/4 375/3/4
f 375/3/4 370/3/4 376/3/4
f 376/3/4 370/3/4 377/3/4
f 377/3/4 370/3/4 378/3/4
f 378/3/4 370/3/4 379/3/4
f 379/3/4 370/3/4 380/3/4
f 380/3/4 370/3/4 381/3/4
f 381/3/4 370/3/4 382/3/4
f 382/3/4 370/3/4 383/3/4
f 383/3/4 370/3/4 384/3/4
f 384/3/4 370/3/4 385/3/4
f 385/3/4 370/3/4 386/3/4
f 386/3/4 370/3/4 387/3/4
f 387/3/4 370/3/4 388/3/4
f 388/3/4 370/3/4 389/3/4
f 389/3/4 370/3/4 390/3/4
f 390/3/4 370/3/4 391/3/4
f 391/3/4 370/3/4 392/3/4
f 392/3/4 370/3/4 393/3/4
f 393/3/4 370/3/4 394/3/4
f 394/3/4 370/3/4 395/3/4
f 395/3/4 370/3/4 396/3/4
f 396/3/4 370/3/4 397/3/4
f 397/3/4 370/3/4 398/3/4
f 398/3/4 370/3/4 399/3/4
f 399/3/4 370/3/4 400/3/4
f 400/3/4 370/3/4 401/3/4
f 401/3/4 370/3/4 402/3/4
f 402/3/4 370/3/4 403/3/4
f 403/3/4 370/3/4 404/3/4
f 404/3/4 370/3/4 405/3/4
f 405/3/4 370/3/4 406/3/4
f 406/3/4 370/3/4 407/3/4
f 407/3/4 370/3/4 408/3/4
f 408/3/4 370/3/4 409/3/4
f 409/3/4 370/3/4 410/3/4
f 410/3/4 370/3/4 411/3/4
f 411/3/4 370/3/4 412/3/4
f 412/3/4 370/3/4 413/3/4
f 413/3/4 370/3/4 414/3/4
f 414/3/4 370/3/4 415/3/4
f 415/3/4 370/3/4 416/3/4
f 416/3/4 370/3/4 417/3/4
f 417/3/4 370/3/4 418/3/4
f 418/3/4 370/3/4 419/3/4
f 419/3/4 370/3/4 420/3/4
f 421/4/4 422/4/4 423/4/4
f 423/4/4 422/4/4 424/4/4
f 425/4/4 426/4/4 427/4/4
f 427/4/4 426/4/4 428/4/4
f 429/4/4 430/4/4 431/4/4
f 431/4/4 430/4/4 432/4/4
f 433/4/4 434/4/4 435/4/4
f 435/4/4 434/4/4 436/4/4
f 437/4/4 438/4/4 439/4/4
f 439/4/4 438/4/4 440/4/4
f 441/4/4 442/4/4 443/4/4
f 443/4/4 442/4/4 444/4/4
f 445/4/4 446/4/4 447/4/4
f 447/4/4 446/4/4 448/4/4
f 449/4/4 450/4/4 451/4/4
f 451/4/4 450/4/4 452/4/4
f 453/4/4 454/4/4 455/4/4
f 455/4/4 454/4/4 456/4/4
f 457/3/4 458/3/4 459/3/4
f 459/3/4 458/3/4 460/3/4
f 460/3/4 458/3/4 461/3/4
f 461/3/4 458/3/4 462/3/4
f 463/4/4 464/4/4 465/4/4
f 465/4/4 464/4/4 466/4/4
f 467/3/4 468/3/4 469/3/4
f 469/3/4 468/3/4 470/3/4
f 473/3/5 472/3/5 471/3/5
f 474/3/5 472/3/5 473/3/5
f 475/2/5 474/2/5 473/2/5
f 476/2/5 474/2/5 475/2/5
f 477/3/5 476/3/5 475/3/5
f 478/3/5 476/3/5 477/3/5
f 481/1/5 480/1/5 479/1/5
f 482/1/5 480/1/5 481/1/5
f 483/2/6 484/2/6 487/2/6
f 487/2/6 484/2/6 488/2/6
f 488/2/6 484/2/6 489/2/6
f 485/1/6 486/1/6 490/1/6
f 490/1/6 486/1/6 491/1/6
f 492/2/6 493/2/6 494/2/6
f 492/2/6 494/2/6 496/2/6
f 494/2/6 495/2/6 496/2/6
f 496/2/6 495/2/6 497/2/6
f 498/2/6 499/2/6 500/2/6
f 500/2/6 499/2/6 501/2/6
f 498/2/6 500/2/6 502/2/6
f 498/2/6 502/2/6 504/2/6
f 502/2/6 503/2/6 504/2/6
f 504/2/6 503/2/6 505/2/6
f 498/2/6 504/2/6 506/2/6
f 498/2/6 506/2/6 508/2/6
f 506/2/6 507/2/6 508/2/6
f 508/2/6 507/2/6 509/2/6
f 510/2/6 511/2/6 512/2/6
f 512/2/6 511/2/6 513/2/6
f 514/2/6 515/2/6 516/2/6
f 516/2/6 515/2/6 517/2/6
f 518/2/6 519/2/6 520/2/6
f 520/2/6 519/2/6 521/2/6
f 522/2/6 523/2/6 524/2/6
f 524/2/6 523/2/6 525/2/6
f 526/2/6 527/2/6 528/2/6
f 528/2/6 527/2/6 529/2/6
f 530/2/6 531/2/6 532/2/6
f 532/2/6 531/2/6 533/2/6
f 534/4/6 535/4/6 536/4/6
f 536/4/6 535/4/6 537/4/6
f 538/4/6 539/4/6 540/4/6
f 540/4/6 539/4/6 541/4/6
f 542/4/6 543/4/6 544/4/6
f 544/4/6 543/4/6 545/4/6
f 546/4/6 547/4/6 548/4/6
f 548/4/6 547/4/6 549/4/6
f 550/4/6 551/4/6 552/4/6
f 552/4/6 551/4/6 553/4/6
f 554/4/6 555/4/6 556/4/6
f 556/4/6 555/4/6 557/4/6
f 558/4/6 559/4/6 560/4/6
f 560/4/6 559/4/6 561/4/6
f 562/4/6 563/4/6 564/4/6
f 564/4/6 563/4/6 565/4/6
f 566/4/6 567/4/6 568/4/6
f 568/4/6 567/4/6 569/4/6
f 570/4/6 571/4/6 572/4/6
f 572/4/6 571/4/6 573/4/6
f 574/4/6 575/4/6 576/4/6
f 576/4/6 575/4/6 577/4/6
f 578/4/6 579/4/6 580/4/6
f 580/4/6 579/4/6 581/4/6
f 582/4/6 583/4/6 584/4/6
f 584/4/6 583/4/6 585/4/6
f 586/3/6 587/3/6 588/3/6
f 588/3/6 587/3/6 589/3/6
f 590/3/6 591/3/6 592/3/6
f 592/3/6 591/3/6 593/3/6
f 594/3/6 595/3/6 596/3/6
f 596/3/6 595/3/6 597/3/6
f 598/3/6 599/3/6 600/3/6
f 600/3/6 599/3/6 601/3/6
f 602/3/6 603/3/6 604/3/6
f 604/3/6 603/3/6 605/3/6
f 606/3/6 607/3/6 608/3/6
f 608/3/6 607/3/6 609/3/6
f 610/3/6 611/3/6 612/3/6
f 612/3/6 611/3/6 613/3/6
f 614/3/6 615/3/6 616/3/6
f 616/3/6 615/3/6 617/3/6
f 618/3/6 619/3/6 620/3/6
f 620/3/6 619/3/6 621/3/6
f 622/3/6 623/3/6 624/3/6
f 624/3/6 623/3/6 625/3/6
f 626/3/6 627/3/6 628/3/6
f 628/3/6 627/3/6 629/3/6
f 630/3/6 631/3/6 632/3/6
f 632/3/6 631/3/6 633/3/6
f 634/3/6 635/3/6 636/3/6
f 636/3/6 635/3/6 637/3/6
f 638/3/6 639/3/6 640/3/6
f 640/3/6 639/3/6 641/3/6
f 642/3/6 643/3/6 644/3/6
f 644/3/6 643/3/6 645/3/6
f 646/3/6 647/3/6 648/3/6
f 648/3/6 647/3/6 649/3/6
f 650/3/6 651/3/6 652/3/6
f 652/3/6 651/3/6 653/3/6
f 654/3/6 655/3/6 656/3/6
f 656/3/6 655/3/6 657/3/6
f 658/3/6 659/3/6 660/3/6
f 660/3/6 659/3/6 661/3/6
f 662/3/6 663/3/6 664/3/6
f 664/3/6 663/3/6 665/3/6
f 666/3/6 667/3/6 668/3/6
f 668/3/6 667/3/6 669/3/6
f 670/3/6 671/3/6 672/3/6
f 672/3/6 671/3/6 673/3/6
f 674/3/6 675/3/6 676/3/6
f 676/3/6 675/3/6 677/3/6
f 678/1/6 679/1/6 680/1/6
f 680/1/6 679/1/6 681/1/6
f 682/1/6 683/1/6 684/1/6
f 684/1/6 683/1/6 685/1/6
f 686/3/6 687/3/6 688/3/6
f 688/3/6 687/3/6 689/3/6
f 690/3/6 691/3/6 692/3/6
f 692/3/6 691/3/6 693/3/6
f 694/3/6 695/3/6 696/3/6
f 696/3/6 695/3/6 697/3/6
f 698/3/6 699/3/6 700/3/6
f 700/3/6 699/3/6 701/3/6
